<?xml version="1.0" encoding="utf-8"?>
<!-- Generator: Adobe Illustrator 21.0.0, SVG Export Plug-In . SVG Version: 6.00 Build 0)  -->
<svg version="1.1" id="Слой_1" xmlns="http://www.w3.org/2000/svg" xmlns:xlink="http://www.w3.org/1999/xlink" x="0px" y="0px"
	 viewBox="0 0 60.9 61" style="enable-background:new 0 0 60.9 61;" xml:space="preserve">
<circle fill="none" stroke="#2365c8" stroke-width="3" stroke-miterlimit="10" class="st0" cx="30.5" cy="30.2" r="28.1"/>
<g>
	<g>
		<path d="M22.6,24.8h7.4c1,0,1.8-0.8,1.8-1.9c0-1-0.8-1.9-1.8-1.9h-7.4c-1,0-1.8,0.8-1.8,1.9C20.7,24,21.6,24.8,22.6,24.8z"/>
		<path d="M22.6,32.9H38c1,0,1.8-0.8,1.8-1.9c0-1-0.8-1.9-1.8-1.9H22.6c-1,0-1.8,0.8-1.8,1.9C20.7,32,21.6,32.9,22.6,32.9z"/>
		<path d="M38.8,36.6H22.6c-1,0-1.8,0.8-1.8,1.8c0,1,0.8,1.8,1.8,1.8h16.2c1,0,1.8-0.8,1.8-1.8C40.6,37.4,39.8,36.6,38.8,36.6z"/>
		<path d="M38.4,13.5H19.7c-2.3,0-4.1,1.8-4.1,4.1v25.6c0,2.3,1.8,4.1,4.1,4.1h21.9c2.3,0,4.1-1.9,4.1-4.1V21L38.4,13.5z M41.6,44.4
			H19.7c-0.7,0-1.2-0.5-1.2-1.2V17.6c0-0.7,0.5-1.2,1.2-1.2h17.2v3.3c0,1.5,1.2,2.6,2.6,2.7l3.2,0v20.8
			C42.8,43.9,42.3,44.4,41.6,44.4z"/>
	</g>
</g>
</svg>
