<svg xmlns="http://www.w3.org/2000/svg" viewBox="0 0 60.9 61">
  <circle cx="30.5" cy="30.2" r="28.1" fill="none" stroke="#2365c8" stroke-width="3" stroke-miterlimit="10" class="st0"/>
  <path d="M22.6 24.8H30c1 0 1.8-.8 1.8-1.9 0-1-.8-1.9-1.8-1.9h-7.4c-1 0-1.8.8-1.8 1.9-.1 1.1.8 1.9 1.8 1.9zm0 8.1H38c1 0 1.8-.8 1.8-1.9 0-1-.8-1.9-1.8-1.9H22.6c-1 0-1.8.8-1.8 1.9-.1 1 .8 1.9 1.8 1.9zm16.2 3.7H22.6c-1 0-1.8.8-1.8 1.8s.8 1.8 1.8 1.8h16.2c1 0 1.8-.8 1.8-1.8s-.8-1.8-1.8-1.8z"/>
  <path d="M38.4 13.5H19.7c-2.3 0-4.1 1.8-4.1 4.1v25.6c0 2.3 1.8 4.1 4.1 4.1h21.9c2.3 0 4.1-1.9 4.1-4.1V21l-7.3-7.5zm3.2 30.9H19.7c-.7 0-1.2-.5-1.2-1.2V17.6c0-.7.5-1.2 1.2-1.2h17.2v3.3c0 1.5 1.2 2.6 2.6 2.7h3.2v20.8c.1.7-.4 1.2-1.1 1.2z"/>
</svg>
