<svg xmlns="http://www.w3.org/2000/svg" viewBox="0 0 612 612">
  <path d="M269.272 310.198c86.177-.005 117.184-86.29 125.3-157.17C404.572 65.716 363.282 0 269.272 0c-93.997 0-135.31 65.71-125.3 153.03 8.124 70.877 39.122 157.174 125.3 157.168z"/>
  <path d="M457.707 346.115c2.773 0 5.528.083 8.264.235-4.1-5.85-8.845-11.01-14.4-15.158-16.56-12.36-38.005-16.414-56.964-23.864-9.23-3.625-17.493-7.226-25.25-11.326-26.185 28.715-60.33 43.736-100.092 43.74-39.75 0-73.89-15.02-100.072-43.74-7.757 4.1-16.023 7.7-25.25 11.326-18.96 7.45-40.404 11.505-56.964 23.864-28.638 21.375-36.04 69.46-41.854 102.26-4.798 27.076-8.022 54.707-8.963 82.21-.73 21.302 9.79 24.29 27.61 30.72 22.316 8.048 45.357 14.023 68.553 18.92 44.797 9.46 90.973 16.73 136.95 17.055 22.278-.16 44.6-1.956 66.792-4.833-16.43-23.807-26.068-52.645-26.068-83.695 0-81.454 66.264-147.717 147.713-147.717z"/>
  <path d="M457.707 375.658c-65.262 0-118.17 52.91-118.17 118.17S392.443 612 457.707 612 575.88 559.09 575.88 493.83c-.002-65.264-52.91-118.172-118.173-118.172zm51.7 138.445h-31.425v31.424c0 11.198-9.077 20.276-20.274 20.276-11.198 0-20.276-9.078-20.276-20.276v-31.424h-31.424c-11.198 0-20.276-9.077-20.276-20.276 0-11.198 9.077-20.276 20.276-20.276h31.424v-31.42c0-11.198 9.078-20.276 20.276-20.276s20.274 9.08 20.274 20.277v31.424h31.425c11.198 0 20.276 9.08 20.276 20.277 0 11.2-9.077 20.277-20.276 20.277z"/>
</svg>
