<svg xmlns="http://www.w3.org/2000/svg" viewBox="0 0 60.9 61">
  <circle cx="30.5" cy="30.2" r="28.1" fill="none" stroke="#912db2" stroke-width="3" stroke-miterlimit="10" class="st0"/>
  <path d="M16.7 36.8v7.3c0 1.3 1.1 2.4 2.4 2.4s2.4-1.1 2.4-2.4v-7.3h-4.8zm-1.2-14.6c-2 0-3.7 1.6-3.7 3.7v4.9c0 2 1.6 3.7 3.7 3.7h6.1V22.2h-6.1zm1.2 9.7h-1.2c-.7 0-1.2-.5-1.2-1.2v-4.9c0-.7.5-1.2 1.2-1.2h1.2v7.3zm7.3-9.7v12.2l15.4 5.4v-23m4.9 6.2v-6.1c0-.8-.8-1.4-1.6-1.1l-.8.2v24.5l.8.2c.8.3 1.6-.3 1.6-1.1v-6.9c2.7 0 4.9-2.2 4.9-4.9S47 23 44.3 23zm0 7.3v-4.9c1.3 0 2.4 1.1 2.4 2.4s-1.1 2.5-2.4 2.5z"/>
</svg>
