<?xml version="1.0" encoding="utf-8"?>
<!-- Generator: Adobe Illustrator 21.0.0, SVG Export Plug-In . SVG Version: 6.00 Build 0)  -->
<svg version="1.1" id="Слой_1" xmlns="http://www.w3.org/2000/svg" xmlns:xlink="http://www.w3.org/1999/xlink" x="0px" y="0px"
	 viewBox="0 0 60.9 61" style="enable-background:new 0 0 60.9 61;" xml:space="preserve">
<circle fill="none" stroke="#912db2" stroke-width="3" stroke-miterlimit="10" class="st0" cx="30.5" cy="30.2" r="28.1"/>
<g>
	<g>
		<path d="M16.7,36.8v7.3c0,1.3,1.1,2.4,2.4,2.4s2.4-1.1,2.4-2.4v-7.3H16.7z"/>
	</g>
</g>
<g>
	<g>
		<path d="M15.5,22.2c-2,0-3.7,1.6-3.7,3.7v4.9c0,2,1.6,3.7,3.7,3.7h6.1V22.2H15.5z M16.7,31.9h-1.2c-0.7,0-1.2-0.5-1.2-1.2v-4.9
			c0-0.7,0.5-1.2,1.2-1.2h1.2C16.7,24.6,16.7,31.9,16.7,31.9z"/>
	</g>
</g>
<g>
	<g>
		<polygon points="24,22.2 24,34.4 39.4,39.8 39.4,16.8 		"/>
	</g>
</g>
<g>
	<g>
		<path d="M44.3,23v-6.1c0-0.8-0.8-1.4-1.6-1.1L41.9,16v24.5l0.8,0.2c0.8,0.3,1.6-0.3,1.6-1.1v-6.9c2.7,0,4.9-2.2,4.9-4.9
			S47,23,44.3,23z M44.3,30.3v-4.9c1.3,0,2.4,1.1,2.4,2.4S45.6,30.3,44.3,30.3z"/>
	</g>
</g>
</svg>
