<svg xmlns="http://www.w3.org/2000/svg" width="438.533" height="438.533">
  <path d="M409.133 109.203c-19.608-33.592-46.205-60.19-79.798-79.796C295.735 9.8 259.058 0 219.273 0c-39.78 0-76.47 9.8-110.063 29.407-33.595 19.604-60.192 46.2-79.8 79.796C9.8 142.8 0 179.49 0 219.267c0 39.78 9.804 76.463 29.407 110.062 19.607 33.59 46.204 60.18 79.8 79.79 33.596 19.6 70.282 29.4 110.062 29.4s76.47-9.8 110.06-29.407c33.59-19.6 60.19-46.206 79.79-79.798 19.6-33.598 29.4-70.286 29.4-110.064 0-39.782-9.8-76.472-29.4-110.064zm-47.4 122.908l-25.978 25.99-103.35 103.35c-3.433 3.43-7.714 5.15-12.852 5.15-5.137 0-9.42-1.72-12.847-5.144l-25.98-25.98c-3.617-3.606-5.425-7.897-5.425-12.846 0-4.943 1.81-9.228 5.43-12.848l53.96-53.956H91.37c-4.948 0-9.23-1.812-12.847-5.427-3.615-3.616-5.424-7.9-5.424-12.85V201c0-4.95 1.81-9.23 5.422-12.847 3.618-3.618 7.9-5.427 12.848-5.427h143.32l-53.96-53.96c-3.428-3.427-5.14-7.707-5.14-12.846 0-5.14 1.712-9.42 5.14-12.85l25.98-25.98c3.43-3.427 7.71-5.14 12.85-5.14 5.143 0 9.42 1.71 12.85 5.136L335.76 180.44l25.98 25.98c3.43 3.427 5.143 7.707 5.143 12.847s-1.713 9.422-5.145 12.847z"/>
</svg>
