<svg xmlns="http://www.w3.org/2000/svg" width="612.001" height="612.001">
  <path d="M565.488 74.616l-2.868-2.833c-63.386-61.375-164.907-60.728-227.507 1.89L45.34 363.533C23.5 385.403 0 425.133 0 460.683c0 33.38 13.027 64.8 36.65 88.405 23.64 23.657 55.08 36.685 88.53 36.685h.018c33.45-.018 64.89-13.045 88.513-36.702l250.16-250.16c17.19-17.182 26.6-41 25.76-65.38-.784-22.36-9.93-43.36-25.754-59.15-16.645-16.63-38.75-25.79-62.283-25.79-23.54 0-45.657 9.148-62.25 25.79l-191.59 191.58c-4.826 4.774-7.85 11.384-7.85 18.69 0 14.48 11.73 26.23 26.23 26.23 7.24 0 13.78-2.937 18.516-7.675l.01.018 191.763-191.8c6.854-6.837 16.314-10.194 25.74-10.037 9.04.14 18.026 3.515 24.62 10.09 6.383 6.38 10.072 14.88 10.404 23.85.35 10.002-3.357 19.427-10.42 26.49L176.62 511.984c-13.744 13.744-32 21.315-51.425 21.333h-.02c-19.427 0-37.7-7.59-51.443-21.335-13.71-13.71-21.28-31.93-21.28-51.303 0-16.3 13.744-43.79 29.988-60.07l289.775-289.84c42.454-42.49 111.35-42.79 154.187-1.05l2.78 2.8c41.074 42.94 40.497 111.29-1.73 153.54L287.62 505.91c-4.81 4.776-7.8 11.35-7.8 18.66 0 14.48 11.735 26.23 26.23 26.23 7.24 0 13.76-2.94 18.52-7.66l.017.02 239.978-239.99c62.947-62.984 63.244-165.205.925-228.556z"/>
</svg>
