<svg xmlns="http://www.w3.org/2000/svg" viewBox="0 0 194.311 194.311">
  <path d="M193.24 114.298L171.658 75.05h.207V38.736c0-7.426-6.04-13.467-13.467-13.467H35.913c-7.426 0-13.467 6.04-13.467 13.465V75.05h.207L1.07 114.3h192.17zM49.743 62.058c0-4.354 3.543-7.897 7.897-7.897h77.615c5.135 0 9.313 4.18 9.313 9.315v1.68c0 5.134-4.178 9.312-9.313 9.312h-76.2c-5.135 0-9.312-4.177-9.312-9.312V62.06zm-17.96 12.994h13.09c3.134 4.474 8.317 7.412 14.182 7.412h76.2c5.865 0 11.05-2.938 14.182-7.412h13.09L179.71 106.3H14.6l17.183-31.25zm162.528 45.606v36.763c0 6.41-5.21 11.625-11.62 11.625H11.624C5.213 169.045 0 163.83 0 157.42v-36.763h194.31z"/>
</svg>
