<svg xmlns="http://www.w3.org/2000/svg" viewBox="0 0 480 480">
  <path d="M104 192H40c-4.424 0-8 3.584-8 8v32c0 4.416 3.576 8 8 8h64c4.424 0 8-3.584 8-8v-32c0-4.416-3.576-8-8-8zm-40 32H48v-16h16v16zm32 0H80v-16h16v16zm8 32H40c-4.424 0-8 3.584-8 8v32c0 4.416 3.576 8 8 8h64c4.424 0 8-3.584 8-8v-32c0-4.416-3.576-8-8-8zm-40 32H48v-16h16v16zm32 0H80v-16h16v16zm8 32H40c-4.424 0-8 3.584-8 8v32c0 4.416 3.576 8 8 8h64c4.424 0 8-3.584 8-8v-32c0-4.416-3.576-8-8-8zm-40 32H48v-16h16v16zm32 0H80v-16h16v16zm296-160h-64c-4.424 0-8 3.584-8 8v32c0 4.416 3.576 8 8 8h64c4.424 0 8-3.584 8-8v-32c0-4.416-3.576-8-8-8zm-40 32h-16v-16h16v16zm32 0h-16v-16h16v16zm8-96h-64c-4.424 0-8 3.584-8 8v32c0 4.416 3.576 8 8 8h64c4.424 0 8-3.584 8-8v-32c0-4.416-3.576-8-8-8zm-40 32h-16v-16h16v16zm32 0h-16v-16h16v16zm-184 64h-32c-4.424 0-8 3.584-8 8v32c0 4.416 3.576 8 8 8h32c4.424 0 8-3.584 8-8v-32c0-4.416-3.576-8-8-8zm-8 32h-16v-16h16v16zm72-32h-32c-4.424 0-8 3.584-8 8v32c0 4.416 3.576 8 8 8h32c4.424 0 8-3.584 8-8v-32c0-4.416-3.576-8-8-8zm-8 32h-16v-16h16v16zm-56-96h-32c-4.424 0-8 3.584-8 8v32c0 4.416 3.576 8 8 8h32c4.424 0 8-3.584 8-8v-32c0-4.416-3.576-8-8-8zm-8 32h-16v-16h16v16zm72-32h-32c-4.424 0-8 3.584-8 8v32c0 4.416 3.576 8 8 8h32c4.424 0 8-3.584 8-8v-32c0-4.416-3.576-8-8-8zm-8 32h-16v-16h16v16zm-56-96h-32c-4.424 0-8 3.584-8 8v32c0 4.416 3.576 8 8 8h32c4.424 0 8-3.584 8-8v-32c0-4.416-3.576-8-8-8zm-8 32h-16v-16h16v16zm72-32h-32c-4.424 0-8 3.584-8 8v32c0 4.416 3.576 8 8 8h32c4.424 0 8-3.584 8-8v-32c0-4.416-3.576-8-8-8zm-8 32h-16v-16h16v16zm-56 192h-32c-4.424 0-8 3.584-8 8v32c0 4.416 3.576 8 8 8h32c4.424 0 8-3.584 8-8v-32c0-4.416-3.576-8-8-8zm-8 32h-16v-16h16v16zM32 384h16v16H32zm32 0h16v16H64zm32 0h16v16H96z"/>
  <path d="M472 288h-40V104c0-4.416-3.576-8-8-8h-56V83.312l8.408-8.408c7 5.2 15.248 7.952 23.592 7.952 10.16 0 20.32-3.864 28.064-11.6l1.6-1.608c3.12-3.128 3.12-8.184-.008-11.304L411.312 40l18.344-18.344-11.312-11.312L400 28.688 373.656 2.344C372.16.84 370.128 0 368 0c-3.208 0-5.136 1.752-6.424 2.928-7.904 7.248-12.384 17.192-12.608 27.984-.232 10.808 4.016 21.392 11.664 29.032L364.688 64l-10.344 10.344C352.84 75.84 352 77.88 352 80v16h-48V72c0-4.416-3.576-8-8-8h-28L222.4 3.2c-3.016-4.032-9.784-4.032-12.8 0L164 64h-28c-4.424 0-8 3.584-8 8v88H80V96H64v64H8c-4.424 0-8 3.584-8 8v304c0 4.416 3.576 8 8 8h432c22.056 0 40-17.944 40-40V296c0-4.416-3.576-8-8-8zM128 464H16V176h112v288zM368.36 19.672l43.832 43.832c-9.088 5.464-21.096 4.272-28.928-3.552l-11.312-11.32c-4.64-4.648-7.128-10.816-6.984-17.376.088-4.152 1.224-8.088 3.392-11.584zM216 21.336L248 64h-64l32-42.664zM184 400v64h-40V80h144v168h16V112h112v176h-16v-8c0-13.232-10.768-24-24-24h-48c-13.232 0-24 10.768-24 24v8h-72c-4.424 0-8 3.584-8 8v88h-64v16h24zm200-120v8h-64v-8c0-4.408 3.584-8 8-8h48c4.416 0 8 3.592 8 8zM200 464v-64h24v40c0 9.04 3.128 17.296 8.208 24H200zm264-24c0 13.232-10.768 24-24 24H264c-13.232 0-24-10.768-24-24v-80.208c6.704 5.08 14.96 8.208 24 8.208h8v24c0 4.416 3.576 8 8 8h32c4.424 0 8-3.584 8-8v-24h64v24c0 4.416 3.576 8 8 8h32c4.424 0 8-3.584 8-8v-24h8c9.04 0 17.296-3.128 24-8.208V440zm-176-56v-16h16v16h-16zm48-32v-16h32v16h-32zm64 32v-16h16v16h-16zm64-56c0 13.232-10.768 24-24 24h-56v-24c0-4.416-3.576-8-8-8h-48c-4.424 0-8 3.584-8 8v24h-56c-13.232 0-24-10.768-24-24v-24h224v24z"/>
  <path d="M432 432h16v16h-16zm-32 0h16v16h-16zm-32 0h16v16h-16z"/>
</svg>
