<svg xmlns="http://www.w3.org/2000/svg" viewBox="0 0 481.413 481.413">
  <path d="M295.173 187.913l-80.1 80.1-27.8-27.8c-4.7-4.7-12.3-4.7-17 0s-4.7 12.3 0 17l36.3 36.3c2.3 2.3 5.3 3.5 8.5 3.5s6.2-1.3 8.5-3.5l88.5-88.5c4.7-4.7 4.7-12.3 0-17-4.6-4.7-12.2-4.7-16.9-.1zm-253.2 138.8c-2.6-6.1-9.7-8.9-15.8-6.3s-8.9 9.7-6.3 15.8c2 4.5 6.4 7.3 11 7.3 1.6 0 3.2-.3 4.8-1 6.1-2.7 8.9-9.7 6.3-15.8zm-13.2-41.8c-1.3-6.5-7.7-10.7-14.2-9.3s-10.7 7.6-9.3 14.1c1.2 5.7 6.2 9.6 11.7 9.6.8 0 1.6-.1 2.4-.3 6.6-1.3 10.7-7.7 9.4-14.1zm91.3-226.5c2.2 0 4.4-.6 6.4-1.8 5.6-3.5 7.3-10.9 3.8-16.5s-10.9-7.3-16.5-3.8-7.3 10.9-3.8 16.5c2.2 3.6 6.1 5.6 10.1 5.6zm-36.6 28.4c3 0 5.9-1.1 8.3-3.3 4.8-4.6 5-12.2.4-17s-12.2-5-17-.4c-4.8 4.6-5 12.2-.4 17 2.3 2.4 5.5 3.7 8.7 3.7zm-71.2 166.4c6.6 0 12-5.4 12-12v-.5c0-6.6-5.4-12-12-12s-12 5.4-12 12v.6c0 6.6 5.4 11.9 12 11.9zm62.8 145.5c-4.6 4.8-4.4 12.4.5 17 2.3 2.2 5.3 3.3 8.3 3.3 3.2 0 6.4-1.3 8.7-3.8 4.6-4.8 4.4-12.4-.5-17-4.8-4.5-12.4-4.3-17 .5zm-60.6-192.3c.8.2 1.6.3 2.4.3 5.6 0 10.6-3.9 11.7-9.6 1.3-6.5-2.9-12.8-9.4-14.2-6.5-1.3-12.8 2.9-14.2 9.4-1.1 6.4 3.1 12.7 9.5 14.1zm433.8-30.9c1.6 5.1 6.3 8.4 11.4 8.4 1.2 0 2.4-.2 3.6-.6 6.3-2 9.8-8.7 7.8-15-2-6.3-8.7-9.8-15-7.8-6.2 2-9.8 8.7-7.8 15zm-196.1-151.5h.6c6.4 0 11.7-5 12-11.4.3-6.6-4.8-12.3-11.4-12.6-6.6-.3-12.2 4.8-12.6 11.4-.3 6.6 4.8 12.2 11.4 12.6zm43.4 6.5c1 .3 2 .4 3 .4 5.3 0 10.2-3.6 11.6-9 1.7-6.4-2.2-13-8.6-14.6-6.4-1.7-13 2.2-14.6 8.6-1.7 6.4 2.2 13 8.6 14.6zm172.3 174.8c-6.6.7-11.4 6.5-10.7 13.1.6 6.2 5.8 10.8 11.9 10.8.4 0 .8 0 1.2-.1 6.6-.7 11.4-6.6 10.7-13.2-.6-6.4-6.5-11.2-13.1-10.6zm-341 219.8c-5.6-3.5-13-1.8-16.5 3.9-3.5 5.6-1.8 13 3.9 16.5 2 1.2 4.2 1.8 6.3 1.8 4 0 7.9-2 10.2-5.7 3.4-5.6 1.7-13-3.9-16.5zm79.6-398.8c.6 0 1.2 0 1.8-.1 6.5-1 11-7.1 10-13.7s-7.1-11-13.7-10-11.1 7.1-10.1 13.7c1.1 5.9 6.2 10.1 12 10.1zm-180.4 135.1c1.5.7 3.1 1 4.7 1 4.6 0 9.1-2.7 11-7.3 2.6-6.1-.2-13.1-6.3-15.8-6.1-2.6-13.2.2-15.8 6.3-2.6 6.2.3 13.2 6.4 15.8zm20.3-41.6c2.1 1.4 4.5 2.1 6.9 2.1 3.8 0 7.5-1.8 9.9-5.1 3.8-5.4 2.5-12.9-3-16.7-5.4-3.8-12.9-2.5-16.7 3-3.8 5.4-2.5 12.9 2.9 16.7zm.3 242.3c-5.4 3.8-6.7 11.3-2.9 16.7 2.3 3.3 6.1 5.1 9.8 5.1 2.4 0 4.8-.7 6.9-2.2 5.4-3.8 6.8-11.3 2.9-16.7-3.8-5.4-11.3-6.7-16.7-2.9zm394.8-220.7c2 0 4-.5 5.8-1.5 5.8-3.2 7.9-10.5 4.6-16.3-3.2-5.8-10.5-7.9-16.3-4.6-5.8 3.2-7.9 10.5-4.6 16.3 2.2 3.8 6.3 6.1 10.5 6.1zm-18.4 239.1c-5-4.3-12.6-3.7-16.9 1.3s-3.7 12.6 1.3 16.9c2.3 1.9 5 2.9 7.8 2.9 3.4 0 6.8-1.4 9.1-4.2 4.3-5 3.7-12.6-1.3-16.9zm-8.2-277.1c2.8 0 5.6-1 7.8-2.9 5-4.3 5.6-11.9 1.3-16.9-4.3-5-11.9-5.6-16.9-1.3-5 4.3-5.6 11.9-1.3 16.9 2.4 2.8 5.8 4.2 9.1 4.2zm55.4 148.3c-6.6-.6-12.5 4.2-13.1 10.8-.7 6.6 4.2 12.5 10.8 13.1.4 0 .8.1 1.2.1 6.1 0 11.3-4.6 11.9-10.8.7-6.7-4.2-12.6-10.8-13.2zm-308.6-213.8c1.4 0 2.8-.2 4.2-.8 6.2-2.3 9.4-9.2 7.1-15.4-2.3-6.2-9.2-9.4-15.4-7.1s-9.4 9.2-7.1 15.4c1.7 4.9 6.3 7.9 11.2 7.9zm285.8 303.2c-5.8-3.2-13.1-1.1-16.3 4.7s-1.1 13.1 4.7 16.3c1.8 1 3.8 1.5 5.8 1.5 4.2 0 8.3-2.2 10.5-6.2 3.2-5.8 1.1-13.1-4.7-16.3zm16-43.5c-6.3-2-13 1.5-15 7.9-2 6.3 1.6 13 7.9 15 1.2.4 2.4.5 3.6.5 5.1 0 9.9-3.3 11.5-8.4 1.9-6.4-1.7-13.1-8-15zm-89.1 114.5c-5.2 4.1-6.2 11.6-2.1 16.8 2.4 3.1 5.9 4.6 9.5 4.6 2.6 0 5.2-.8 7.4-2.5 5.2-4.1 6.2-11.6 2.1-16.8-4.2-5.2-11.7-6.1-16.9-2.1zm-121.7 45.3c-6.6.4-11.7 6-11.4 12.6.3 6.4 5.6 11.4 12 11.4h.6c6.6-.3 11.7-6 11.4-12.6s-6-11.7-12.6-11.4zm-43.9-2.1c-6.5-1-12.7 3.5-13.6 10.1-1 6.5 3.5 12.7 10.1 13.6.6.1 1.2.1 1.8.1 5.8 0 11-4.3 11.8-10.2 1-6.5-3.6-12.6-10.1-13.6zm-42.5-10.9c-6.2-2.3-13.1.9-15.4 7.1-2.3 6.2.9 13.1 7.1 15.4 1.4.5 2.8.7 4.1.7 4.9 0 9.5-3 11.3-7.9 2.3-6.1-.9-13-7.1-15.3zm129.7 6.3c-6.4 1.7-10.3 8.2-8.6 14.6 1.4 5.4 6.3 9 11.6 9 1 0 2-.1 3-.4 6.4-1.7 10.3-8.2 8.6-14.6-1.6-6.4-8.1-10.2-14.6-8.6zm41.2-15.3c-6 2.9-8.4 10.1-5.5 16.1 2.1 4.2 6.3 6.7 10.8 6.7 1.8 0 3.6-.4 5.3-1.2 6-2.9 8.4-10.1 5.5-16.1-3-6-10.2-8.4-16.1-5.5zm-.5-389.6c1.7.8 3.5 1.2 5.3 1.2 4.4 0 8.7-2.5 10.8-6.7 2.9-6 .5-13.1-5.5-16.1-6-2.9-13.1-.5-16.1 5.5-2.9 5.9-.4 13.1 5.5 16.1zm37.3 23.2c2.2 1.7 4.8 2.5 7.3 2.5 3.6 0 7.1-1.6 9.5-4.7 4.1-5.2 3.1-12.8-2.1-16.8-5.2-4.1-12.8-3.1-16.8 2.1-4.1 5.3-3.1 12.8 2.1 16.9z"/>
</svg>
