<svg xmlns="http://www.w3.org/2000/svg" viewBox="0 0 286.054 286.054">
  <path d="M143.027 0C64.04 0 0 64.04 0 143.027c0 78.996 64.04 143.027 143.027 143.027s143.027-64.03 143.027-143.027C286.054 64.04 222.014 0 143.027 0zm0 259.236c-64.183 0-116.21-52.026-116.21-116.21S78.845 26.82 143.027 26.82s116.21 52.026 116.21 116.21-52.026 116.208-116.21 116.208zm25.325-116.298l25.29-25.29c3.485-3.485 3.485-9.144 0-12.63l-12.65-12.65c-3.495-3.485-9.145-3.494-12.64 0l-25.29 25.29-25.27-25.27c-3.495-3.505-9.163-3.505-12.658-.02l-12.65 12.65c-3.485 3.486-3.485 9.145.01 12.65l25.27 25.27-25.216 25.217c-3.495 3.495-3.495 9.145 0 12.65l12.64 12.64c3.495 3.485 9.154 3.485 12.64 0l25.226-25.227 25.405 25.414c3.5 3.495 9.16 3.504 12.654.01l12.64-12.64c3.495-3.496 3.486-9.155-.01-12.65l-25.395-25.414z"/>
</svg>
