<svg xmlns="http://www.w3.org/2000/svg" viewBox="0 0 511.999 511.999">
  <path d="M282.7 417.258c-.8-2.99-3.713-4.902-6.775-4.445-105.91 15.83-202.887-66.642-202.887-174.963 0-97.522 79.34-176.863 176.863-176.863 119.23 0 205.03 116.522 168.48 230.64-1.063 3.326.84 6.868 4.216 7.772l40.11 10.74c2.064.55 4.066 1.26 5.993 2.11 3.337 1.46 7.226-.25 8.31-3.73C524.867 154.76 409.03 0 249.9 0 118.75 0 12.05 106.7 12.05 237.85c0 151.18 137.667 259.523 278.548 234.51 3.525-.627 5.762-4.14 4.836-7.598L282.7 417.258z"/>
  <path d="M250.71 174.075c14.56 0 22.087 9.975 21.932 19.667-.165 10.324 8.224 18.73 18.54 18.593 10.408-.137 18.277-9.225 18.034-19.63-.588-25.218-17.77-46.392-41.02-53.04v-8.093c0-9.852-7.57-18.328-17.412-18.79-10.507-.496-19.18 7.876-19.18 18.274v9.59c-24.297 8.16-41.532 30.828-41.025 57.32.61 32.083 27.22 58.183 59.32 58.183 9.12 0 17.08 5.49 20.68 13.35 1.412 3.08 5.192 4.29 8.21 2.74 6.565-3.367 13.88-4.928 21.133-4.626 4.337.18 7.397-4.196 5.95-8.29-8.133-23.005-30.157-39.655-55.7-39.78-10.124-.048-19.268-6.71-22.113-16.424-4.415-15.097 7.835-29.055 22.64-29.055zm13.12 182.405c1.258-1.48 1.638-3.52 1.136-5.398-8.47-31.6-9.83-34.283-9.344-43.045.18-3.25-2.24-6.412-6.53-6.412-14.56 0-22.087-9.976-21.932-19.667.165-10.324-8.224-18.73-18.54-18.593-10.408.138-18.277 9.225-18.034 19.63.588 25.22 17.77 46.392 41.02 53.04v8.105c0 17.47 21.196 25.333 32.224 12.34zm230.76 79.815l-50.98-50.993 20.976-20.983c9.937-9.95 5.39-26.97-8.206-30.61L302.963 292.6c-13.578-3.636-26.052 8.813-22.408 22.41.33 1.228 39.938 149.008 40.43 150.848 4.963 18.55 22.398 19.673 31.297 10.77l20.977-20.976 50.98 50.983c7.14 7.145 18.73 7.143 25.87 0l44.47-44.473c7.142-7.144 7.144-18.726 0-25.873z"/>
</svg>
