<svg xmlns="http://www.w3.org/2000/svg" viewBox="0 0 49.999 49.999">
  <path d="M30.84 10.87c.734-1.11 1.165-2.44 1.165-3.87 0-3.865-3.135-7-7-7S18 3.135 18 7.002c0 1.43.43 2.757 1.166 3.865C10.968 13.364 5 20.982 5 29.997 5 41.045 13.954 50 25 50s20-8.956 20-20.002c0-9.014-5.965-16.63-14.16-19.13zM25.003 4c1.654 0 3 1.347 3 3.002 0 1.643-1.328 2.98-2.967 2.997-.012 0-.024-.006-.037-.006l-.03.002C23.33 9.98 22 8.643 22 7c0-1.655 1.346-3 3-3zM25 46c-8.822 0-16-7.178-16-16 0-8.808 7.153-15.972 15.953-16 .018 0 .035.004.053.004l.05-.003C33.85 14.03 41 21.198 41 30c0 8.823-7.178 16-16 16zm2.21-22.108c-2.442-.882-5.06-.236-6.808 1.51-1.856 1.857-2.35 4.556-1.49 6.865L15 40l7.978-3.827c2.424.792 4.94.1 6.62-1.577 1.775-1.776 2.304-4.322 1.596-6.562L35 20l-7.79 3.89zM25 32.5c-3.29 0-3.296-5.002 0-5.002 1.382 0 2.5 1.12 2.5 2.5 0 1.382-1.118 2.5-2.5 2.5z"/>
</svg>
