<svg xmlns="http://www.w3.org/2000/svg" viewBox="0 0 512 512">
  <path d="M363.43 0H26.18c-5.633 0-10.2 4.566-10.2 10.2v491.6c0 5.634 4.567 10.2 10.2 10.2h337.25c5.632 0 10.198-4.566 10.198-10.2V10.2c0-5.634-4.566-10.2-10.2-10.2zm-10.2 491.602H36.38V20.398h316.85v471.204z"/>
  <path d="M298.41 86.69h-3.785c-5.633 0-10.2 4.567-10.2 10.2 0 5.633 4.567 10.2 10.2 10.2h3.786c5.636 0 10.2-4.567 10.2-10.2 0-5.633-4.564-10.2-10.2-10.2zm-48.416 0H91.198c-5.633 0-10.2 4.567-10.2 10.2 0 5.633 4.567 10.2 10.2 10.2h158.795c5.633 0 10.2-4.567 10.2-10.2 0-5.633-4.566-10.2-10.2-10.2zm48.416 79.556H91.2c-5.633 0-10.2 4.566-10.2 10.2s4.567 10.198 10.2 10.198h207.21c5.634 0 10.2-4.566 10.2-10.2s-4.566-10.198-10.2-10.198zm0 79.554H91.2c-5.633 0-10.2 4.567-10.2 10.2 0 5.633 4.567 10.2 10.2 10.2h207.21c5.634 0 10.2-4.567 10.2-10.2 0-5.633-4.566-10.2-10.2-10.2zm0 80.61H91.2c-5.633 0-10.2 4.566-10.2 10.2 0 5.632 4.567 10.198 10.2 10.198h207.21c5.634 0 10.2-4.566 10.2-10.2 0-5.632-4.566-10.198-10.2-10.198zm0 79.555H91.2c-5.633 0-10.2 4.566-10.2 10.2 0 5.632 4.567 10.198 10.2 10.198h207.21c5.634 0 10.2-4.566 10.2-10.2 0-5.632-4.566-10.198-10.2-10.198zM464.4 109.292v-18.01c0-5.093-3.736-9.302-8.616-10.064V49.466c0-5.633-4.566-10.2-10.2-10.2h-25.6c-5.634 0-10.2 4.567-10.2 10.2v31.752c-4.88.762-8.617 4.97-8.617 10.065v328.134c0 13.566 9.045 25.053 21.418 28.764v14.356c0 5.633 4.566 10.2 10.2 10.2s10.198-4.567 10.198-10.2V448.18c12.374-3.71 21.418-15.198 21.418-28.763V130.465c6.59 2.79 11.22 9.32 11.22 16.913v73.434c0 5.633 4.568 10.2 10.2 10.2 5.634 0 10.2-4.567 10.2-10.2v-73.434c0-18.93-13.646-34.725-31.617-38.086zm-34.218-49.627h5.204v21.418h-5.204V59.665zm-8.617 41.817h22.438v242.74h-22.438v-242.74zm22.438 317.935c0 5.31-4.32 9.63-9.63 9.63h-3.178c-5.31 0-9.63-4.32-9.63-9.63v-54.795h22.438v54.795z"/>
</svg>
