<svg xmlns="http://www.w3.org/2000/svg" width="442.533" height="442.533">
  <path d="M434.54 98.5l-38.83-38.83c-5.323-5.327-11.798-7.992-19.41-7.992-7.617 0-14.092 2.665-19.416 7.993L169.59 247.25l-83.94-84.225c-5.33-5.33-11.8-7.992-19.41-7.992-7.617 0-14.088 2.663-19.418 7.993l-38.828 38.83C2.664 207.18 0 213.652 0 221.268c0 7.608 2.664 14.087 7.994 19.415l103.35 103.35 38.832 38.827c5.327 5.332 11.8 7.994 19.414 7.994 7.61 0 14.084-2.67 19.414-7.994l38.83-38.828L434.54 137.33c5.324-5.33 7.993-11.802 7.993-19.417.004-7.61-2.67-14.084-7.994-19.414z"/>
</svg>
