<svg xmlns="http://www.w3.org/2000/svg" width="95.939" height="95.939">
  <path d="M62.82 47.97l32.53-32.534c.78-.78.78-2.047 0-2.828L83.332.586C82.96.21 82.45 0 81.92 0c-.53 0-1.04.21-1.415.586L47.97 33.12 15.435.587c-.75-.75-2.078-.75-2.828 0L.587 12.607c-.78.78-.78 2.048 0 2.83L33.12 47.97.588 80.504c-.78.78-.78 2.047 0 2.828l12.02 12.02c.375.376.884.587 1.414.587.53 0 1.04-.215 1.415-.59L47.97 62.82l32.535 32.535c.375.375.884.586 1.414.586.525 0 1.035-.213 1.41-.59l12.02-12.02c.78-.78.78-2.05 0-2.83L62.82 47.97z"/>
</svg>
