<svg xmlns="http://www.w3.org/2000/svg" viewBox="0 0 512 512">
  <path d="M362.794 370.325c-8.93-6.055-19.95-9.096-30.604-12.036-2.325-.65-4.642-1.29-6.912-1.95-13.034-3.83-21.392-11.4-22.36-20.23-.78-7.15 3.522-14.05 11.507-18.45 1.688-.93 3.567-1.63 5.58-2.12v15.86c0 5.89 4.774 10.66 10.666 10.66 5.89 0 10.67-4.78 10.67-10.67v-15.08c6.23 1.53 12.3 4.01 17.26 7.01 5.04 3.05 11.6 1.44 14.65-3.6 3.05-5.04 1.44-11.6-3.6-14.65-7.89-4.78-17.89-8.7-28.3-10.6v-7.67c0-5.89-4.77-10.66-10.66-10.66s-10.66 4.773-10.66 10.663v7.024c-5.59.79-10.98 2.43-15.87 5.126-15.55 8.57-24.14 23.684-22.42 39.45 1.94 17.69 15.97 32.04 37.55 38.38.24.07.5.14.74.21v50.224c-8.83-1.47-16.13-5.21-18.47-9.713-2.71-5.23-9.15-7.27-14.38-4.56s-7.27 9.15-4.56 14.38c6.49 12.5 21.54 19.55 37.41 21.345v11.13c0 5.89 4.78 10.67 10.67 10.67s10.67-4.78 10.67-10.67v-11.9c2.21-.43 4.37-.96 6.44-1.616 16.73-5.27 29.17-19.83 31.7-37.083 2.3-15.714-3.94-30.26-16.69-38.904zm-4.423 35.817c-1.34 9.214-8.02 16.996-17 19.826-.01.003-.02.005-.03.01v-42.602c3.59 1.325 6.85 2.82 9.49 4.607 8.38 5.684 8.07 14.592 7.55 18.16z"/>
  <path d="M330.67 234.668c-3.588 0-7.15.138-10.67.406V50.667c0-11.136-7.804-26.85-44.975-38.466C249.847 4.34 216.573 0 181.333 0S112.82 4.334 87.64 12.2C50.47 23.82 42.666 39.53 42.666 50.668v322.67c0 11.134 7.803 26.847 44.976 38.463 25.18 7.87 58.454 12.21 93.693 12.21 6.717 0 13.434-.17 20.065-.49C221.55 475.25 271.895 512 330.67 512c76.46 0 138.666-62.204 138.666-138.664 0-76.462-62.204-138.668-138.665-138.668zM94.005 32.563c23.175-7.242 54.188-11.23 87.33-11.23 33.138 0 64.153 3.988 87.328 11.23 24.492 7.654 30.005 15.84 30.005 18.104 0 2.265-5.513 10.45-30.005 18.105-23.175 7.24-54.188 11.23-87.33 11.23s-64.154-3.99-87.328-11.23C69.51 61.116 63.998 52.93 63.998 50.666c0-2.263 5.512-10.45 30.006-18.104zM63.998 79.256c6.11 3.47 13.85 6.817 23.643 9.877 25.18 7.868 58.46 12.2 93.7 12.2s68.51-4.333 93.69-12.2c9.8-3.06 17.53-6.405 23.64-9.876v25.19c0 2.264-5.51 10.45-30 18.105-23.17 7.24-54.19 11.23-87.33 11.23-15.38 0-30.39-.867-44.63-2.573-5.84-.71-11.16 3.47-11.86 9.32-.7 5.85 3.47 11.16 9.32 11.86 15.08 1.8 30.95 2.72 47.17 2.72 35.24 0 68.52-4.34 93.69-12.2 9.8-3.06 17.53-6.41 23.65-9.88V212c0 2.266-5.51 10.45-30 18.106-23.17 7.242-54.19 11.23-87.33 11.23s-64.15-3.988-87.33-11.23C69.51 222.452 64 214.266 64 212v-25.185c6.11 3.47 13.85 6.817 23.642 9.877 25.18 7.87 58.454 12.2 93.693 12.2 20.994 0 41.1-1.505 59.757-4.48 5.818-.924 9.783-6.392 8.856-12.21-.927-5.82-6.41-9.78-12.212-8.855-17.305 2.756-36.808 4.213-56.402 4.213-33.14 0-64.155-3.99-87.33-11.23-24.493-7.655-30.006-15.84-30.006-18.104v-78.97zM181.333 402.67c-33.14 0-64.155-3.99-87.33-11.23-24.493-7.655-30.006-15.84-30.006-18.104v-25.19c6.11 3.47 13.85 6.817 23.643 9.877 25.178 7.868 58.453 12.202 93.692 12.202 3.57 0 7.144-.05 10.706-.14-.025 1.083-.04 2.165-.04 3.25 0 1.215.018 2.423.05 3.63.01.375.028.752.042 1.13.028.83.055 1.66.098 2.485.023.455.06.91.086 1.363.046.743.09 1.49.146 2.23.04.5.09 1.002.134 1.502.062.69.12 1.38.19 2.068.058.542.125 1.083.188 1.622.074.64.145 1.28.227 1.916.07.59.16 1.18.24 1.77.08.58.16 1.16.25 1.73.1.65.21 1.29.32 1.93.08.51.17 1.02.26 1.53.13.71.26 1.41.4 2.11.08.44.17.87.26 1.3l.15.79c-4.56.16-9.15.24-13.73.24zm22.944-86.37c-.004.012-.01.02-.014.03-.375.834-.74 1.67-1.1 2.51-.102.24-.208.477-.308.717-.166.394-.324.79-.486 1.186-3.66 8.89-6.43 18.237-8.18 27.934-4.28.138-8.58.215-12.87.215-33.14 0-64.16-3.988-87.33-11.23-24.5-7.654-30.01-15.84-30.01-18.104V240.59c6.11 3.47 13.85 6.817 23.64 9.877 25.17 7.867 58.45 12.2 93.69 12.2 28.08 0 54.9-2.758 77.38-7.857-12.52 7.61-23.87 17.207-33.53 28.512-2.79 3.267-5.41 6.653-7.87 10.142-11.6 1.092-23.71 1.65-35.99 1.65-15.38 0-30.4-.867-44.63-2.573-5.85-.7-11.16 3.48-11.86 9.33-.7 5.85 3.47 11.16 9.32 11.86 15.07 1.81 30.94 2.73 47.17 2.73 7.82 0 15.56-.24 23.18-.66l-.24.52zM330.67 490.668c-52.55 0-97.142-34.724-112.036-82.43-.18-.58-.35-1.164-.522-1.746-.288-.975-.563-1.956-.827-2.942-.176-.662-.347-1.326-.512-1.99-.135-.548-.275-1.094-.403-1.647-.26-1.12-.5-2.243-.73-3.372-.092-.46-.178-.92-.266-1.38-.185-.98-.358-1.96-.517-2.95-.05-.3-.106-.61-.153-.92-.194-1.25-.362-2.51-.514-3.77-.044-.36-.085-.73-.126-1.1-.135-1.22-.258-2.45-.355-3.67l-.03-.32c-.1-1.32-.18-2.66-.23-3.99-.02-.33-.03-.67-.04-1-.05-1.35-.08-2.7-.08-4.06 0-1.62.04-3.24.11-4.85.01-.26.01-.52.03-.79.06-1.45.17-2.9.29-4.34.03-.45.07-.9.12-1.35.12-1.272.26-2.55.42-3.81.09-.69.18-1.37.28-2.05.09-.62.19-1.242.29-1.87.25-1.51.52-3.02.82-4.51l.01-.05c8.79-42.82 40.99-77.203 82.58-89.152l.51-.147c.96-.27 1.93-.53 2.9-.78 1.11-.274 2.22-.543 3.35-.79.43-.1.86-.194 1.29-.286 1.47-.31 2.95-.594 4.44-.85 6.46-1.1 13.09-1.686 19.86-1.686 64.692 0 117.33 52.634 117.33 117.33 0 64.7-52.64 117.34-117.336 117.34z"/>
  <path d="M96.347 145.404c1.653.436 3.345.86 5.068 1.27.83.197 1.66.29 2.478.29 4.826 0 9.202-3.3 10.368-8.2 1.37-5.73-2.17-11.483-7.9-12.846-1.55-.37-3.07-.75-4.56-1.142-5.7-1.504-11.53 1.897-13.03 7.593-1.5 5.69 1.9 11.53 7.6 13.03zm173.303 52.443c1.008 0 2.035-.145 3.05-.447 2.098-.625 4.212-1.298 6.284-2 5.58-1.89 8.57-7.948 6.677-13.528-1.89-5.58-7.94-8.568-13.52-6.677-1.82.618-3.68 1.21-5.52 1.758-5.64 1.682-8.86 7.622-7.18 13.268 1.39 4.64 5.63 7.63 10.22 7.63zM106.346 287.25c-1.554-.37-3.08-.75-4.572-1.14-5.69-1.492-11.53 1.91-13.025 7.61-1.5 5.697 1.91 11.53 7.61 13.024 1.65.433 3.34.854 5.06 1.263.83.196 1.65.29 2.47.29 4.83 0 9.2-3.302 10.37-8.206 1.36-5.73-2.19-11.48-7.92-12.84z"/>
</svg>
