<svg xmlns="http://www.w3.org/2000/svg" viewBox="0 0 286.054 286.054">
  <path d="M277.115 107.27H223.48c-4.943 0-8.94 3.996-8.94 8.94v53.634c0 4.943 3.997 8.94 8.94 8.94h53.635c4.943 0 8.94-3.997 8.94-8.94V116.21c0-4.944-3.997-8.94-8.94-8.94zm0-107.27H223.48c-4.943 0-8.94 4.005-8.94 8.94v53.634c0 4.943 3.997 8.94 8.94 8.94h53.635c4.943 0 8.94-3.997 8.94-8.94V8.94c0-4.935-3.997-8.94-8.94-8.94zM62.575 0H8.938C4.004 0 0 4.005 0 8.94v53.634c0 4.943 4.005 8.94 8.94 8.94h53.634c4.934 0 8.94-3.997 8.94-8.94V8.94c0-4.935-4.005-8.94-8.94-8.94zm0 107.27H8.938c-4.935 0-8.94 3.996-8.94 8.94v53.634c0 4.943 4.005 8.94 8.94 8.94h53.634c4.934 0 8.94-3.997 8.94-8.94V116.21c0-4.944-4.005-8.94-8.94-8.94zm214.54 107.27H223.48c-4.943 0-8.94 3.996-8.94 8.94v53.634c0 4.943 3.997 8.94 8.94 8.94h53.635c4.943 0 8.94-3.997 8.94-8.94V223.48c0-4.944-3.997-8.94-8.94-8.94zm-214.54 0H8.938c-4.935 0-8.94 3.996-8.94 8.94v53.635c0 4.943 4.005 8.94 8.94 8.94h53.634c4.934 0 8.94-3.997 8.94-8.94V223.48c0-4.944-4.005-8.94-8.94-8.94zm107.27-107.27H116.21c-4.936 0-8.94 3.996-8.94 8.94v53.634c0 4.943 4.004 8.94 8.94 8.94h53.633c4.943 0 8.94-3.997 8.94-8.94V116.21c0-4.944-3.996-8.94-8.94-8.94zm0-107.27H116.21c-4.936 0-8.94 4.005-8.94 8.94v53.634c0 4.943 4.004 8.94 8.94 8.94h53.633c4.943 0 8.94-3.997 8.94-8.94V8.94c0-4.935-3.996-8.94-8.94-8.94zm0 214.54H116.21c-4.936 0-8.94 3.996-8.94 8.94v53.634c0 4.943 4.004 8.94 8.94 8.94h53.633c4.943 0 8.94-3.997 8.94-8.94V223.48c0-4.944-3.996-8.94-8.94-8.94z"/>
</svg>
