<svg xmlns="http://www.w3.org/2000/svg" viewBox="0 0 512.001 512.001">
  <path d="M490.748 146.253c-16.294-27.433-39.185-53.528-54.64-67.218-33.74-29.893-61.886-29.165-75.663-26.07-5.788 1.302-11.103 3.447-15.782 6.308-24.04-17.84-53.283-26.578-88.663-26.578s-64.625 8.74-88.663 26.58c-4.68-2.862-9.994-5.008-15.782-6.308-13.773-3.095-41.922-3.824-75.66 26.068-15.457 13.69-38.347 39.786-54.643 67.22-22.062 37.14-26.976 67.185-14.606 89.3 15.104 27.004 38.014 33.914 56.51 35.618-4.547 17.655-7.354 36.542-7.354 60.075 0 31.192 7.1 58.028 21.105 79.762 12.31 19.108 30.035 34.41 52.68 45.478 41.837 20.45 92.184 22.816 126.414 22.816s84.58-2.365 126.42-22.816c22.65-11.07 40.37-26.37 52.68-45.478 14.01-21.735 21.11-48.57 21.11-79.763 0-23.533-2.8-42.42-7.35-60.076 18.5-1.7 41.41-8.61 56.51-35.61 12.37-22.11 7.46-52.16-14.61-89.3zm-417.87 94.054c-16.368-.43-29.678-3.6-38.88-20.048-6.24-11.17-1.066-32.31 14.2-58.01 14.49-24.4 35.287-48.08 48.48-59.77 21.785-19.31 38.117-20.37 45.8-19.34-22.866 27.87-36.882 64.1-48.603 99.32-4.854 14.584-9.532 27.04-14.058 39.082-2.42 6.443-4.748 12.64-6.94 18.742zm162.677 102.75c-8.107-8.103-12.35-16.61-12.35-20.823 0-3.763.645-4.033 3.042-5.042 6.833-2.875 20.253-3.207 29.753-3.207s22.92.332 29.753 3.207c2.397 1.008 3.042 1.28 3.042 5.042 0 4.214-4.242 12.72-12.35 20.823-7.973 7.968-16.484 12.267-20.446 12.267s-12.48-4.3-20.45-12.267zm133.098 85.278c-24.05 11.755-55.89 18.13-96.983 19.394v-64.2c12.304-4.75 22.324-13.71 26.93-18.31 6.475-6.48 21.535-23.62 21.535-42.99 0-15.85-7.894-27.9-22.228-33.93-9.554-4.02-21.696-5.66-41.906-5.66s-32.35 1.64-41.9 5.66c-14.33 6.03-22.23 18.08-22.23 33.93 0 19.37 15.06 36.51 21.54 42.99 4.61 4.6 14.63 13.56 26.93 18.31v64.19c-41.09-1.27-72.93-7.64-96.98-19.4-37.82-18.49-56.2-50.25-56.2-97.09 0-40.076 9.235-64.65 22.014-98.668 4.413-11.745 9.413-25.057 14.456-40.21 27.7-83.236 57-128.34 132.39-128.34S360.7 109.122 388.4 192.36c5.043 15.155 10.045 28.466 14.457 40.21 12.78 34.016 22.014 58.59 22.014 98.665 0 46.84-18.38 78.597-56.21 97.085zm109.35-208.076c-9.202 16.45-22.512 19.61-38.88 20.04-2.192-6.1-4.518-12.3-6.938-18.75-4.525-12.05-9.203-24.5-14.058-39.09-11.72-35.224-25.737-71.45-48.604-99.328 7.684-1.03 24.017.03 45.804 19.34 13.192 11.68 33.988 35.37 48.477 59.76 15.266 25.702 20.44 46.843 14.2 58.003z"/>
  <path d="M203.85 199.256c-11.336 0-20.563 9.32-20.563 20.83 0 11.508 9.226 20.837 20.564 20.837 11.36 0 20.58-9.33 20.58-20.837 0-11.51-9.22-20.83-20.57-20.83zm104.145-.163c-11.447 0-20.733 9.4-20.733 20.993 0 11.594 9.286 20.993 20.733 20.993 11.434 0 20.72-9.4 20.72-21s-9.286-21-20.72-21z"/>
</svg>
