<svg xmlns="http://www.w3.org/2000/svg" viewBox="0 0 512 512">
  <path d="M447.933 103.63c-.034-3.077-1.224-6.09-3.485-8.353L352.683 3.51l-.01-.007C350.503 1.338 347.51 0 344.205 0H89.278C75.36 0 64.04 11.32 64.04 25.237v461.525C64.04 500.678 75.36 512 89.277 512H422.72c13.917 0 25.238-11.32 25.238-25.238v-383.01c.002-.043-.02-.08-.025-.123zm-91.74-62.7l50.835 50.835h-49.572c-.695 0-1.262-.567-1.262-1.262V40.93zm67.79 445.833c0 .695-.566 1.26-1.26 1.26H89.277c-.695 0-1.26-.565-1.26-1.26V25.237c0-.695.565-1.26 1.26-1.26h242.94v66.526c0 13.916 11.322 25.24 25.24 25.24h66.526v371.02z"/>
  <path d="M362.088 164.014H149.912c-6.62 0-11.988 5.367-11.988 11.988 0 6.62 5.368 11.988 11.988 11.988h212.175c6.62 0 11.988-5.368 11.988-11.988 0-6.62-5.368-11.988-11.987-11.988zm0 72.34H149.912c-6.62 0-11.988 5.367-11.988 11.987s5.368 11.99 11.988 11.99h212.175c6.62 0 11.988-5.37 11.988-11.99s-5.368-11.985-11.987-11.985zm0 72.336H149.912c-6.62 0-11.988 5.37-11.988 11.99s5.368 11.987 11.988 11.987h212.175c6.62 0 11.988-5.367 11.988-11.988 0-6.62-5.368-11.99-11.987-11.99zM256 381.03H149.912c-6.62 0-11.988 5.37-11.988 11.99s5.368 11.987 11.988 11.987H256c6.62 0 11.988-5.367 11.988-11.988 0-6.624-5.368-11.99-11.988-11.99z"/>
</svg>
