<svg xmlns="http://www.w3.org/2000/svg" viewBox="0 0 512 512">
  <path d="M361.8 177.594l66.842-89.63c2.67-3.578 3.09-8.358 1.088-12.35s-6.086-6.512-10.553-6.512H131.395V54.05c9.736-4.485 16.515-14.33 16.515-25.732C147.91 12.704 135.206 0 119.59 0S91.273 12.704 91.273 28.318c0 11.402 6.777 21.245 16.51 25.73V488.39h-14.96c-6.52 0-11.805 5.285-11.805 11.805S86.303 512 92.822 512h53.537c6.51 0 11.8-5.285 11.8-11.805s-5.29-11.805-11.81-11.805h-14.96V285.645h287.354c4.464 0 8.546-2.518 10.55-6.508 2.002-3.99 1.584-8.768-1.082-12.348l-66.413-89.2zM119.59 35.387c-3.897 0-7.067-3.17-7.067-7.07 0-3.896 3.17-7.067 7.068-7.067s7.07 3.17 7.07 7.068c0 3.898-3.17 7.07-7.07 7.07zm11.806 226.648v-39.21h37.623c6.52 0 11.8-5.286 11.8-11.806s-5.29-11.81-11.81-11.81h-37.62v-43.68h58.87c6.52 0 11.806-5.287 11.806-11.807s-5.286-11.805-11.806-11.805h-58.87V92.71h264.25l-58.03 77.82c-3.12 4.182-3.12 9.92-.003 14.107l57.63 77.393h-263.84z"/>
</svg>
