<svg xmlns="http://www.w3.org/2000/svg" viewBox="0 0 512 512">
  <path d="M400.268 175.6c-1.4-3.005-4.412-4.933-7.73-4.933h-101.12L391.213 13.1c1.664-2.63 1.766-5.957.265-8.68C389.975 1.69 387.108 0 384 0H247.47c-3.234 0-6.187 1.826-7.637 4.72l-128 256c-1.323 2.636-1.178 5.776.375 8.293 1.562 2.517 4.3 4.053 7.262 4.053h87.748l-95.616 227.09c-1.63 3.882-.18 8.387 3.413 10.59 1.382.844 2.918 1.253 4.446 1.253 2.45 0 4.867-1.05 6.54-3.03L399.066 184.7c2.14-2.542 2.602-6.092 1.203-9.104z"/>
</svg>
