<svg xmlns="http://www.w3.org/2000/svg" width="96.769" height="96.768">
  <path d="M78.13 62.958c-.434-4.48-1.723-9.157-3.728-13.527-1.82-3.98-4.206-7.78-7.09-11.3-.81-.99-1.632-1.94-2.057-2.38l-.98-1.07c-.238-.27-.44-.49-.638-.69l-.293-.29c-.32-.32-.65-.65-.924-.99-.02-.02-.044-.05-.068-.08-.133-.14-.276-.29-.436-.45-.208-.21-.444-.44-.654-.71l-.083-.09c-1.5-1.64-2.75-3.13-3.84-4.55-1.28-1.67-2.18-3.06-2.92-4.51-.87-1.64-1.52-3.48-1.93-5.46-.39-1.79-.62-3.85-.68-6.13-.06-2.02.06-3.96.19-5.58.09-1.08.19-2.03.3-2.87.07-.653-.18-1.31-.68-1.742-.5-.435-1.18-.596-1.82-.43-.96.25-1.94.58-2.9.98-2.04.83-4.04 1.98-5.95 3.43-2.44 1.856-4.58 4.145-6.36 6.8-2.18 3.25-3.73 7.068-4.46 11.03-.84 4.366-.75 9.29.26 13.857.95 4.426 2.81 8.94 5.36 13.077 1.35 2.155 2.64 3.955 3.93 5.466.38.476 1.43 1.704 1.44 1.72l.42.48c.29.333.5.584.72.84.2.235.36.43.54.624l.03.03c2 2.394 3.41 4.15 4.574 5.704 1.287 1.71 2.42 3.37 3.457 5.068 1.11 1.815 1.9 3.4 2.49 4.986.667 1.8 1.105 3.755 1.308 5.814.19 1.81.19 3.844.006 6.2-.18 2.137-.513 4.085-.78 5.51-.19.978-.383 1.88-.56 2.657-.144.66.05 1.35.52 1.83.38.396.893.61 1.43.61.127 0 .255-.013.38-.037.94-.18 1.844-.42 2.74-.73 2.09-.68 4.156-1.67 6.126-2.93 2.555-1.62 4.86-3.69 6.854-6.15 2.42-2.99 4.306-6.58 5.46-10.37 1.3-4.235 1.74-8.938 1.28-13.598zM38.92 75.206c-.833-1.822-1.923-3.562-3.234-5.16-.33-.406-.73-.87-.924-1.073l-.46-.504c-.12-.14-.208-.23-.3-.33l-.126-.13c-.146-.15-.292-.3-.416-.45-.022-.03-.045-.06-.07-.08l-.172-.18c-.1-.11-.2-.21-.285-.32l-.07-.08c-.658-.72-1.225-1.4-1.724-2.05-.43-.56-.92-1.24-1.35-2.07-.4-.76-.69-1.59-.88-2.5-.18-.82-.28-1.76-.31-2.8-.03-.86.02-1.68.06-2.21.05-.71-.28-1.4-.87-1.8-.59-.4-1.35-.46-1.99-.156-.74.353-1.47.8-2.17 1.323-1.12.85-2.09 1.89-2.9 3.1-.7 1.036-1.61 2.75-2.04 5.03-.39 2-.35 4.25.11 6.33.44 2.02 1.28 4.085 2.45 5.98.62.986 1.21 1.807 1.772 2.477.17.21.53.628.69.815l.18.2c.14.16.24.28.34.396.08.1.152.184.22.254l.03.036c.62.736 1.412 1.7 2.09 2.606.59.78 1.106 1.54 1.577 2.31.5.82.86 1.543 1.13 2.27.302.82.503 1.72.6 2.662.082.824.082 1.75 0 2.814-.054.63-.14 1.3-.27 2.04-.12.714.153 1.44.72 1.9.36.29.804.44 1.253.44.256 0 .51-.05.75-.15.7-.28 1.39-.64 2.04-1.06 1.17-.73 2.225-1.68 3.14-2.81 1.1-1.36 1.96-3 2.49-4.73.58-1.906.79-4.11.58-6.21-.2-2.043-.786-4.18-1.7-6.17z"/>
</svg>
