<svg xmlns="http://www.w3.org/2000/svg" width="896.025" height="896.025">
  <path d="M863.24 382.77l-88.76-14.806c-6.45-26.374-15.856-51.585-28.106-75.1l56.82-70.45c12.086-14.89 11.537-36.313-1.204-50.683l-35.3-39.72c-12.797-14.354-34.017-17.39-50.203-7.164L640.58 172.56c-33.38-23.327-71.2-40.55-112-50.547l-14.85-89.237C510.62 13.876 494.27.013 475.07.013h-53.198c-19.155 0-35.56 13.864-38.608 32.76l-14.93 89.26c-33.73 8.26-65.354 21.59-94.214 39.146l-72.188-51.52c-15.558-11.12-36.927-9.38-50.504 4.17l-37.583 37.61c-13.548 13.57-15.286 34.94-4.142 50.5l51.638 72.323c-17.39 28.642-30.58 60.086-38.84 93.515l-89.74 14.99C13.89 385.89 0 402.24 0 421.435v53.156c0 19.196 13.89 35.55 32.757 38.666L122.5 528.24c6.78 27.507 16.625 53.783 29.71 78.146L95.646 676.44c-12.044 14.875-11.538 36.312 1.203 50.67l35.27 39.73c12.792 14.38 34.03 17.36 50.212 7.16l77-48.37c32.58 22.285 69.44 38.664 108.992 48.37l14.93 89.25c3.05 18.896 19.453 32.76 38.61 32.76h53.196c19.194 0 35.545-13.863 38.66-32.76L528.6 774c33.308-8.146 64.53-21.244 93.134-38.5l75.194 53.706c15.53 11.155 36.915 9.405 50.48-4.186l37.596-37.597c13.533-13.536 15.366-34.893 4.128-50.48l-53.54-75.058c17.44-28.738 30.704-60.238 38.91-93.816l88.757-14.82c18.92-3.12 32.754-19.47 32.754-38.67v-53.15c-.028-19.19-13.863-35.545-32.786-38.66zM449.42 616.014c-92.764 0-168-75.25-168-168 0-92.764 75.236-168 168-168 92.748 0 167.998 75.236 167.998 168 0 92.75-75.25 168-167.998 168z"/>
</svg>
