<svg xmlns="http://www.w3.org/2000/svg" width="512" height="512">
  <path d="M256 0C114.615 0 0 114.615 0 256s114.615 256 256 256 256-114.615 256-256S397.385 0 256 0zm-96 256c0-53.02 42.98-96 96-96s96 42.98 96 96-42.98 96-96 96-96-42.98-96-96zm302.99 85.738l-88.71-36.745C380.54 289.9 384 273.355 384 256s-3.46-33.9-9.72-48.993l61.06-25.293 27.647-11.452C473.943 196.672 480 225.627 480 256s-6.057 59.327-17.01 85.738zM341.738 49.01l-36.744 88.71C289.902 131.46 273.354 128 256 128c-17.356 0-33.9 3.46-48.993 9.72l-17.23-41.6-19.515-47.11C196.672 38.056 225.628 32 256 32c30.373 0 59.326 6.057 85.738 17.01zM49.01 170.262l47.112 19.515 41.6 17.23C131.46 222.1 128 238.645 128 256s3.46 33.9 9.72 48.993l-88.71 36.745C38.057 315.328 32 286.373 32 256s6.057-59.327 17.01-85.738zM170.262 462.99l11.452-27.647 25.293-61.063C222.1 380.54 238.645 384 256 384s33.9-3.46 48.992-9.72l36.746 88.71C315.326 473.942 286.373 480 256 480c-30.372 0-59.327-6.057-85.738-17.01z"/>
</svg>
