<svg xmlns="http://www.w3.org/2000/svg" width="47.001" height="47.001">
  <path d="M22.432 22.43c0 .59.48 1.066 1.068 1.066s1.068-.48 1.068-1.067c0-1.25.445-2.47 1.25-3.43 1.794-2.13 3.138-4.43 3.99-6.85.114-.33.064-.69-.136-.977-.2-.283-.525-.45-.872-.45H18.2c-.348 0-.673.167-.874.45-.2.283-.25.645-.135.972.86 2.42 2.2 4.724 3.99 6.85.81.956 1.25 2.172 1.26 3.42zm2.136 4.28c0-.59-.48-1.067-1.068-1.067s-1.068.48-1.068 1.067c0 1.542-.922 3.067-2.593 4.304-3.58 2.64-6.25 5.506-7.96 8.52-.19.332-.188.736.01 1.062.19.33.54.53.92.53h21.37c.38 0 .73-.2.92-.53.19-.326.192-.73.01-1.062-1.7-3.014-4.37-5.88-7.95-8.52-1.67-1.237-2.59-2.762-2.59-4.304z"/>
  <path d="M42.192 42.73h-.64c-.733-8.314-5.6-14.696-9.385-19.23 3.785-4.53 8.65-10.914 9.388-19.227h.64c1.18 0 2.135-.957 2.135-2.137C44.33.956 43.374 0 42.194 0H4.807C3.627 0 2.67.957 2.67 2.136c0 1.18.957 2.137 2.137 2.137h.64c.734 8.314 5.6 14.697 9.385 19.228-3.784 4.54-8.65 10.92-9.387 19.23h-.638c-1.18 0-2.136.96-2.136 2.14s.96 2.14 2.14 2.14H42.2c1.18 0 2.136-.953 2.136-2.14 0-1.18-.956-2.13-2.137-2.13zm-32.464 0c.803-7.512 5.686-13.296 9.335-17.618l.195-.23c.672-.796.672-1.96 0-2.756l-.194-.23c-3.648-4.323-8.533-10.107-9.336-17.62h27.544c-.803 7.513-5.688 13.297-9.336 17.62l-.193.23c-.672.795-.672 1.96 0 2.755l.195.24c3.648 4.32 8.53 10.11 9.334 17.62H9.728z"/>
</svg>
