<?xml version="1.0" encoding="iso-8859-1"?>
<!-- Generator: Adobe Illustrator 18.1.1, SVG Export Plug-In . SVG Version: 6.00 Build 0)  -->
<svg version="1.1" id="Capa_1" xmlns="http://www.w3.org/2000/svg" xmlns:xlink="http://www.w3.org/1999/xlink" x="0px" y="0px"
	 viewBox="0 0 522.949 522.949" style="enable-background:new 0 0 522.949 522.949;" xml:space="preserve">
<g>
	<g>
		<path style="fill:#010002;" d="M220.834,481.113h81.282c-1.594,11.953-6.175,21.914-13.746,29.887
			c-7.569,7.969-16.534,11.949-26.895,11.949c-10.36,0-19.325-3.98-26.895-11.949C227.01,503.027,222.428,493.066,220.834,481.113z
			 M201.112,464.977h120.727l5.379-44.227H195.135L201.112,464.977z M428.818,166.149c0,43.43-14.744,81.082-44.227,112.957
			c-0.4,0.398-1.197,1.396-2.394,2.988c-1.991,3.186-3.983,6.574-5.977,10.16c-4.781,8.367-9.365,17.73-13.746,28.09
			c-4.381,10.357-8.166,20.719-11.354,31.078c-0.798,0.996-1.396,2.789-1.794,5.379c-0.396,2.59-0.797,4.283-1.193,5.08
			c-0.398,0.797-0.697,2.092-0.896,3.885c-0.198,1.793-0.3,2.689-0.3,2.689v0.896v15.539v19.125h-19.125h-15.538H210.673h-15.539
			h-19.125V384.89v-15.539l-0.299-2.092c-0.199-1.396-0.697-3.688-1.494-6.873c-0.797-3.189-1.594-6.176-2.391-8.965
			c-3.187-10.359-6.972-20.723-11.355-31.078c-4.382-9.563-9.363-19.324-14.941-29.285c-2.39-3.984-4.582-7.371-6.574-10.16
			c-0.398-0.797-0.996-1.793-1.793-2.988v-0.598c-28.687-31.476-43.031-68.531-43.031-111.164c0-45.82,16.436-84.966,49.307-117.439
			S215.655,0,261.475,0s85.165,16.238,118.036,48.71S428.818,120.329,428.818,166.149z M390.569,166.149
			c0-35.461-12.647-65.642-37.951-90.545c-25.301-24.903-55.682-37.354-91.143-37.354s-65.841,12.452-91.142,37.354
			s-37.951,55.084-37.951,90.545c0,32.672,10.957,61.16,32.871,85.465c1.594,1.992,3.785,4.781,6.574,8.367
			c1.992,3.585,4.183,7.57,6.574,11.953c6.375,11.156,11.953,22.113,16.734,32.871c5.18,11.555,9.762,23.309,13.746,35.262
			c3.188,11.156,4.981,19.725,5.379,25.699h94.43c0.4-5.975,2.191-14.543,5.379-25.699c3.586-11.953,7.969-23.707,13.148-35.262
			c5.179-11.555,10.356-22.113,15.539-31.676c2.391-3.984,4.979-7.971,7.77-11.953c2.394-3.984,4.383-6.773,5.979-8.367
			C379.215,228.504,390.569,199.618,390.569,166.149z M291.953,212.169l-16.733-33.47l-13.745-26.894L247.729,178.7l-16.734,33.47
			l-16.734-33.47l-26.895,13.746l30.48,60.363l13.148,27.492l13.746-27.492l16.735-33.469l16.734,33.469l13.746,27.492
			l13.146-27.492l30.48-60.363L308.685,178.7L291.953,212.169z"/>
	</g>
</g>
<g>
</g>
<g>
</g>
<g>
</g>
<g>
</g>
<g>
</g>
<g>
</g>
<g>
</g>
<g>
</g>
<g>
</g>
<g>
</g>
<g>
</g>
<g>
</g>
<g>
</g>
<g>
</g>
<g>
</g>
</svg>
