<svg xmlns="http://www.w3.org/2000/svg" viewBox="0 0 522.949 522.949">
  <path d="M220.834 481.113h81.282c-1.594 11.953-6.175 21.914-13.746 29.887-7.57 7.97-16.534 11.95-26.895 11.95-10.36 0-19.325-3.98-26.895-11.95-7.57-7.973-12.152-17.934-13.746-29.887zm-19.722-16.136H321.84l5.378-44.227H195.135l5.977 44.227zM428.818 166.15c0 43.43-14.744 81.08-44.227 112.956-.4.398-1.19 1.396-2.39 2.988-1.99 3.186-3.98 6.574-5.97 10.16-4.78 8.367-9.362 17.73-13.743 28.09-4.38 10.357-8.166 20.72-11.354 31.078-.797.996-1.395 2.79-1.793 5.38-.396 2.59-.797 4.282-1.193 5.08-.397.796-.696 2.09-.895 3.884l-.3 2.69v35.56H176.01V369.35l-.3-2.09c-.2-1.397-.697-3.69-1.494-6.874-.797-3.19-1.594-6.176-2.39-8.965-3.188-10.35-6.973-20.72-11.356-31.07-4.382-9.56-9.363-19.32-14.94-29.28-2.39-3.984-4.583-7.37-6.575-10.16-.398-.797-.996-1.793-1.793-2.99v-.596c-28.687-31.476-43.03-68.53-43.03-111.164 0-45.82 16.435-84.97 49.306-117.44S215.655 0 261.475 0 346.64 16.238 379.51 48.71s49.308 71.62 49.308 117.44zm-38.25 0c0-35.462-12.646-65.643-37.95-90.546-25.3-24.903-55.682-37.354-91.143-37.354s-65.84 12.452-91.142 37.354-37.95 55.084-37.95 90.545c0 32.67 10.956 61.16 32.87 85.46 1.594 1.99 3.785 4.78 6.574 8.36 1.992 3.584 4.183 7.57 6.574 11.952 6.38 11.156 11.96 22.113 16.74 32.87 5.18 11.556 9.76 23.31 13.75 35.263 3.19 11.156 4.98 19.725 5.38 25.7h94.43c.4-5.976 2.19-14.544 5.38-25.7 3.588-11.953 7.97-23.707 13.15-35.26 5.18-11.556 10.356-22.114 15.54-31.677 2.39-3.986 4.978-7.973 7.77-11.955 2.393-3.984 4.38-6.77 5.978-8.367 22.71-24.307 34.065-53.19 34.065-86.66zm-98.615 46.02L275.22 178.7l-13.745-26.895L247.73 178.7l-16.735 33.47-16.734-33.47-26.89 13.746 30.48 60.363L231 280.3l13.746-27.49 16.736-33.47 16.733 33.47 13.745 27.49 13.146-27.49 30.48-60.368-26.894-13.746-16.733 33.47z" fill="#010002"/>
</svg>
