<?xml version="1.0" encoding="utf-8"?>
<!-- Generator: Adobe Illustrator 19.0.0, SVG Export Plug-In . SVG Version: 6.00 Build 0)  -->
<svg version="1.2" baseProfile="tiny" id="Capa_1" xmlns="http://www.w3.org/2000/svg" xmlns:xlink="http://www.w3.org/1999/xlink"
	 x="0px" y="0px" viewBox="-304.5 351.5 90 90" xml:space="preserve">
<g>
	<g id="Layer_1_65_">
		<g>
			<path d="M-233.1,394.1c-0.2-0.3-0.5-0.6-0.9-0.6h-2.9c-1.9-10.1-10.7-17.8-21.4-17.8c-12,0-21.7,9.7-21.7,21.7
				s9.7,21.7,21.7,21.7c7.7,0,14.9-4.2,18.8-10.9c0.5-0.9,0.2-2.2-0.7-2.7c-0.9-0.5-2.2-0.2-2.7,0.7c-3.2,5.5-9.1,8.9-15.4,8.9
				c-9.8,0-17.8-8-17.8-17.8c0-9.8,8-17.8,17.8-17.8c8.4,0,15.5,5.9,17.3,13.8h-2.9c-0.4,0-0.7,0.2-0.9,0.6
				c-0.2,0.3-0.1,0.8,0.1,1.1l4.9,5.9c0.2,0.2,0.5,0.4,0.8,0.4c0.3,0,0.6-0.1,0.8-0.4l4.9-5.9C-233,394.9-232.9,394.5-233.1,394.1z"
				/>
			<path d="M-258.3,380.7c-1.1,0-2,0.9-2,2v12c-0.9,0.6-1.5,1.7-1.5,2.8c0,1.9,1.6,3.5,3.5,3.5c0.5,0,1-0.1,1.5-0.3l6.9,4
				c0.3,0.2,0.7,0.3,1,0.3c0.7,0,1.3-0.4,1.7-1c0.5-0.9,0.2-2.2-0.7-2.7l-6.9-4c-0.1-1-0.6-2-1.4-2.5v-12
				C-256.3,381.6-257.2,380.7-258.3,380.7z M-258.3,399c-0.8,0-1.5-0.7-1.5-1.5c0-0.8,0.7-1.5,1.5-1.5c0.8,0,1.5,0.7,1.5,1.5
				C-256.8,398.3-257.5,399-258.3,399z"/>
		</g>
	</g>
</g>
<circle id="my_circle" fill="none" stroke="#e94f4f" stroke-width="4" stroke-miterlimit="10" cx="-258.4" cy="397.4" r="41"/>
</svg>
