<svg xmlns="http://www.w3.org/2000/svg" viewBox="0 0 330 330">
  <path d="M152.552 140.717c.956-.794 1.93-1.565 2.92-2.32.107-.08.214-.164.32-.246.97-.73 1.952-1.44 2.95-2.13l.398-.27c.99-.68 1.992-1.33 3.01-1.97l.436-.27c1.02-.63 2.054-1.24 3.1-1.84l.43-.24c1.064-.59 2.14-1.17 3.23-1.72l.357-.18c1.123-.56 2.26-1.1 3.41-1.62l.205-.09c1.2-.53 2.412-1.05 3.64-1.53h.007c1.213-.48 2.44-.922 3.68-1.35l.283-.1c1.186-.405 2.383-.78 3.59-1.14l.45-.13c1.177-.34 2.365-.656 3.56-.95l.546-.132c1.185-.282 2.38-.54 3.58-.774.193-.04.387-.075.58-.11 1.205-.23 2.42-.432 3.64-.61l.562-.08c1.24-.173 2.486-.324 3.74-.446.162-.02.324-.03.485-.046 1.29-.12 2.59-.217 3.9-.28l.32-.01c1.37-.065 2.75-.1 4.13-.1 2.57 0 5.11.113 7.63.324l.42.038c12.23 1.088 23.76 4.61 34.09 10.098h.01c1.29.69 2.565 1.405 3.82 2.15l.005.005c1.255.742 2.488 1.52 3.7 2.32l.007.005c1.21.81 2.4 1.64 3.57 2.5l.004.01c2.345 1.72 4.6 3.555 6.767 5.49V75c0-8.283-6.714-15-15-15h-45V15c0-8.283-6.714-15-15-15H75c-8.284 0-15 6.717-15 15v45H15C6.716 60 0 66.718 0 75v160c0 8.284 6.716 15 15 15h114.358c-4.578-9.212-7.624-19.318-8.806-29.988l-.002-.024c-.088-.797-.166-1.597-.233-2.4 0-.013-.003-.027-.004-.04-.066-.803-.123-1.607-.17-2.415 0-.03-.003-.057-.004-.086-.05-.828-.09-1.66-.11-2.492l-.01-.08c-.03-.823-.04-1.647-.04-2.474 0-.76.01-1.53.03-2.29.01-.72.04-1.44.08-2.15v-.11c.07-1.4.17-2.8.31-4.18.01-.1.01-.21.03-.32.13-1.35.3-2.69.49-4.03.01-.09.02-.18.04-.27.19-1.28.41-2.56.66-3.83l.07-.4c.245-1.24.52-2.473.817-3.7.04-.15.07-.3.11-.443.3-1.216.63-2.42.98-3.617l.13-.435c.36-1.2.74-2.39 1.145-3.57l.13-.37c.42-1.2.86-2.39 1.33-3.57l.1-.24c.49-1.22 1.002-2.424 1.543-3.615l.014-.03c1.11-2.44 2.325-4.82 3.64-7.136l.11-.198c.63-1.094 1.28-2.174 1.95-3.24l.19-.31c.656-1.04 1.336-2.064 2.035-3.07l.255-.366c.694-1 1.41-1.98 2.146-2.947l.274-.36c.743-.97 1.503-1.92 2.284-2.85l.266-.32c.8-.943 1.61-1.872 2.446-2.783l.21-.23c.86-.94 1.74-1.86 2.644-2.76l.08-.08c1.86-1.844 3.8-3.61 5.81-5.29l.194-.16zM90 60V30h90v30H90zm235.606 244.393l-20.815-20.815-21.43-21.432c-5.83 8.198-13.01 15.375-21.21 21.213l21.43 21.43 20.82 20.81c2.93 2.93 6.77 4.39 10.61 4.39s7.68-1.47 10.61-4.4c5.86-5.86 5.86-15.36 0-21.22z"/>
  <path d="M209.996 150c-.957 0-1.907.028-2.854.072-.71.035-1.418.09-2.122.15-.19.015-.384.025-.575.042-23.102 2.12-42.395 17.338-50.425 38.162l-.04.1c-.285.744-.557 1.494-.813 2.25-.02.063-.045.125-.066.187-.26.805-.52 1.616-.76 2.436l-.09.33c-.18.65-.36 1.31-.52 1.97l-.12.54c-.23 1-.44 2-.62 3.02-.07.42-.15.83-.22 1.26-.06.4-.11.81-.17 1.22-.07.52-.14 1.04-.2 1.57-.04.37-.07.75-.11 1.12-.05.6-.1 1.2-.14 1.81-.02.31-.04.63-.05.94-.04.93-.07 1.86-.07 2.8 0 15.37 5.784 29.38 15.29 40 10.984 12.27 26.94 20 44.71 20s33.723-7.73 44.71-20c9.503-10.62 15.29-24.63 15.29-40 0-33.14-26.86-60-60-60z"/>
</svg>
