<?xml version="1.0" encoding="iso-8859-1"?>
<!-- Generator: Adobe Illustrator 19.0.0, SVG Export Plug-In . SVG Version: 6.00 Build 0)  -->
<svg version="1.1" id="Capa_1" xmlns="http://www.w3.org/2000/svg" xmlns:xlink="http://www.w3.org/1999/xlink" x="0px" y="0px"
	 viewBox="0 0 489.9 489.9" style="enable-background:new 0 0 489.9 489.9;" xml:space="preserve">
<g>
	<g>
		<path d="M454.6,119.9h-73V52.1c0-29.2-22.9-52.1-52.1-52.1h-170c-29.2,0-52.1,22.9-52.1,52.1v67.8h-72C15.6,119.9,0,136.6,0,155.3
			v299.2c0,19.8,15.6,35.4,35.4,35.4h419.1c19.8,0,35.4-15.6,35.4-36.5V155.3C490,135.5,474.4,119.9,454.6,119.9z M149.1,52.1
			c0-6.3,5.2-11.5,11.5-11.5h168.9c6.3,0,11.5,5.2,11.5,11.5v67.8H149.1V52.1z M449.3,449.3H40.7V161.6h408.7v287.7H449.3z"/>
		<path d="M166.8,298.2c13.7,11.8,25,4.2,29.2,0l28.1-28.1V390c0,11.5,9.4,20.9,20.9,20.9s20.9-9.4,20.9-19.8V270l28.1,28.1
			c8.3,8.3,20.9,8.3,29.2,0c8.3-8.3,8.3-20.9,0-29.2l-63.6-63.6c-8.3-7.3-21.9-7.3-29.2,0L166.8,269
			C158.5,277.3,157.9,290.4,166.8,298.2z"/>
	</g>
</g>
<g>
</g>
<g>
</g>
<g>
</g>
<g>
</g>
<g>
</g>
<g>
</g>
<g>
</g>
<g>
</g>
<g>
</g>
<g>
</g>
<g>
</g>
<g>
</g>
<g>
</g>
<g>
</g>
<g>
</g>
</svg>
