<svg xmlns="http://www.w3.org/2000/svg" viewBox="0 0 330 330">
  <path d="M325.606 304.393l-42.276-42.275c10.49-14.716 16.666-32.71 16.666-52.118 0-26.593-11.598-50.526-29.996-67.017V75c0-8.283-6.716-15-15-15h-45V15c0-8.283-6.716-15-15-15H75c-8.284 0-15 6.717-15 15v45H15C6.716 60 0 66.718 0 75v160c0 8.284 6.716 15 15 15h114.39c14.753 29.608 45.34 50 80.606 50 19.41 0 37.404-6.177 52.122-16.668l42.275 42.275C307.323 328.535 311.16 330 315 330s7.678-1.464 10.606-4.393c5.86-5.86 5.86-15.356 0-21.214zM90 30h90v30H90V30zM30 220V90h210v35.15c-9.39-3.33-19.487-5.15-30.004-5.15-49.626 0-90 40.374-90 90 0 3.38.193 6.715.56 10H30zm119.996-10c0-33.084 26.916-60 60-60s60 26.916 60 60-26.916 60-60 60-60-26.916-60-60z"/>
</svg>
