<svg xmlns="http://www.w3.org/2000/svg" width="401.601" height="401.6">
  <path d="M116.682 229.33c11.286 0 22.195-.73 32.518-2.087v-113.15c-10.322-1.355-21.232-2.084-32.518-2.084-64.44 0-116.68 23.69-116.68 52.92v11.47c0 29.222 52.24 52.92 116.68 52.92zm0 59.08c11.286 0 22.195-.728 32.518-2.083V253.16c-10.325 1.357-21.23 2.096-32.518 2.096-56.25 0-103.2-18.054-114.227-42.082C.85 216.674 0 220.298 0 224.014v11.476c0 29.228 52.24 52.92 116.682 52.92zm32.518 26.413v-2.578c-10.326 1.356-21.23 2.095-32.52 2.095-56.25 0-103.198-18.054-114.226-42.082C.848 275.758 0 279.38 0 283.096v11.477c0 29.23 52.24 52.922 116.68 52.922 12.888 0 25.283-.95 36.874-2.7-2.873-5.877-4.355-12.075-4.355-18.496v-11.48zM284.92 22.38c-64.44 0-116.68 23.692-116.68 52.92v11.477c0 29.228 52.24 52.92 116.68 52.92s116.68-23.692 116.68-52.92V75.3c0-29.228-52.24-52.92-116.68-52.92z"/>
  <path d="M284.92 165.626c-56.25 0-103.2-18.053-114.227-42.082-1.606 3.5-2.454 7.123-2.454 10.84v11.476c0 29.228 52.24 52.92 116.68 52.92s116.68-23.69 116.68-52.92v-11.477c0-3.716-.85-7.34-2.46-10.84-11.03 24.03-57.98 42.083-114.23 42.083z"/>
  <path d="M284.92 224.71c-56.25 0-103.2-18.054-114.227-42.082-1.606 3.5-2.454 7.123-2.454 10.84v11.476c0 29.23 52.24 52.922 116.68 52.922s116.68-23.693 116.68-52.922v-11.477c0-3.716-.85-7.34-2.46-10.84-11.03 24.03-57.98 42.083-114.23 42.083z"/>
  <path d="M284.92 286.983c-56.25 0-103.2-18.054-114.227-42.082-1.606 3.5-2.454 7.13-2.454 10.84v11.48c0 29.23 52.24 52.92 116.68 52.92s116.68-23.69 116.68-52.92v-11.48c0-3.71-.85-7.34-2.46-10.84-11.03 24.03-57.98 42.09-114.23 42.09z"/>
  <path d="M284.92 346.066c-56.25 0-103.2-18.053-114.227-42.08-1.606 3.5-2.454 7.124-2.454 10.837V326.3c0 29.228 52.24 52.92 116.68 52.92S401.6 355.53 401.6 326.3v-11.478c0-3.715-.847-7.34-2.453-10.838-11.028 24.028-57.977 42.082-114.227 42.082z"/>
</svg>
