<svg xmlns="http://www.w3.org/2000/svg" viewBox="0 0 512 512">
  <path fill="#406180" d="M431.28 0H80.72c-5.63 0-10.197 4.566-10.197 10.2v491.6c0 5.634 4.566 10.2 10.2 10.2h266.56c2.706 0 5.3-1.075 7.213-2.987l83.997-83.998c1.912-1.912 2.987-4.506 2.987-7.212V10.2c0-5.634-4.568-10.2-10.2-10.2zm-73.817 477.197l-.044-49.258 49.25.04-49.215 49.21zM421.08 407.6l-73.86-.068h-.01c-2.705 0-5.3 1.075-7.212 2.987-1.915 1.91-2.99 4.51-2.987 7.22l.07 73.86H90.92V20.4h330.16v387.2z"/>
  <path fill="#2dc888" d="M194.237 85.796c-3.983-3.983-10.44-3.983-14.424 0l-30.015 30.016-7.453-7.454c-3.983-3.983-10.44-3.983-14.424 0-3.98 3.983-3.98 10.44 0 14.424l14.67 14.665c1.91 1.912 4.51 2.987 7.21 2.987s5.3-1.075 7.21-2.987l37.23-37.227c3.985-3.982 3.985-10.44 0-14.424z"/>
  <path fill="#406180" d="M376.867 106.124h-3.576c-5.63 0-10.19 4.566-10.19 10.2s4.566 10.198 10.2 10.198h3.575c5.633 0 10.2-4.566 10.2-10.2s-4.567-10.198-10.2-10.198zm-36.214 0H226.455c-5.633 0-10.2 4.566-10.2 10.2s4.567 10.198 10.2 10.198h114.198c5.633 0 10.2-4.566 10.2-10.2s-4.567-10.198-10.2-10.198z"/>
  <path fill="#2dc888" d="M194.237 184.532c-3.983-3.983-10.44-3.983-14.424 0l-30.015 30.016-7.453-7.454c-3.983-3.983-10.44-3.983-14.424 0-3.98 3.983-3.98 10.44 0 14.424l14.67 14.665c1.91 1.912 4.51 2.987 7.21 2.987s5.3-1.075 7.21-2.987l37.23-37.227c3.985-3.982 3.985-10.44 0-14.424z"/>
  <path fill="#406180" d="M376.868 204.86H226.455c-5.633 0-10.2 4.565-10.2 10.198s4.567 10.2 10.2 10.2h150.413c5.633 0 10.2-4.567 10.2-10.2 0-5.633-4.567-10.2-10.2-10.2z"/>
  <path fill="#2dc888" d="M194.237 282.954c-3.983-3.983-10.44-3.983-14.424 0l-30.015 30.016-7.453-7.454c-3.983-3.984-10.44-3.983-14.424 0-3.98 3.983-3.98 10.44 0 14.424l14.67 14.665c1.91 1.912 4.51 2.987 7.21 2.987s5.3-1.075 7.21-2.987l37.23-37.227c3.985-3.982 3.985-10.44 0-14.424z"/>
  <path fill="#406180" d="M376.867 303.28H226.455c-5.633 0-10.2 4.567-10.2 10.2 0 5.633 4.567 10.2 10.2 10.2h150.413c5.632 0 10.198-4.567 10.198-10.2 0-5.632-4.566-10.2-10.2-10.2z"/>
</svg>
