<svg xmlns="http://www.w3.org/2000/svg" viewBox="0 0 320.002 320.002">
  <path d="M51.213 175h173.785c8.284 0 15-6.715 15-15 0-8.283-6.716-15-15-15H51.213l19.394-19.393c5.858-5.858 5.858-15.355 0-21.213-5.857-5.858-15.355-5.858-21.213 0l-44.998 45c-.35.35-.683.718-.997 1.102-.14.167-.26.344-.39.515-.17.22-.34.44-.49.67-.14.21-.26.43-.39.64-.12.21-.25.41-.37.62-.12.22-.22.45-.327.67-.105.22-.214.44-.307.66-.09.22-.16.44-.24.67-.088.24-.18.48-.254.72-.067.22-.116.45-.17.67-.064.25-.134.5-.184.757-.05.26-.08.52-.12.78-.03.224-.074.444-.096.67-.047.484-.072.97-.073 1.457v.046c0 .49.026.974.074 1.46.02.222.063.44.094.66.04.264.07.53.12.79.05.252.12.496.182.743.056.225.106.454.174.68.07.24.16.473.245.71.08.225.154.452.246.674.09.22.2.43.3.645.11.23.21.46.33.683.11.205.236.4.355.6.13.22.26.44.4.658.15.22.31.428.47.64.136.18.26.365.407.54.3.366.615.715.946 1.05.016.016.03.034.045.05l45 45c2.93 2.93 6.77 4.395 10.61 4.395 3.836 0 7.676-1.463 10.604-4.39 5.856-5.858 5.856-15.355 0-21.213L51.21 175z"/>
  <path d="M305.002 25h-190c-8.284 0-15 6.716-15 15v60c0 8.284 6.716 15 15 15s15-6.716 15-15V55h160v210h-160v-45c0-8.284-6.716-15-15-15s-15 6.716-15 15v60c0 8.285 6.716 15 15 15h190c8.284 0 15-6.715 15-15V40c0-8.284-6.716-15-15-15z"/>
</svg>
