<svg xmlns="http://www.w3.org/2000/svg" viewBox="0 0 511.992 511.992">
  <path d="M287.998 97.85V35.18c0-16.355-18.555-25.787-31.784-16.172C220.92 44.658 196.56 83.683 192 129.848h64c17.672 0 31.998-14.326 31.998-31.997z"/>
  <path d="M511.79 136.617c-2.49-48.88-27.154-90.534-64.05-117.528C434.56 9.444 416 18.954 416 35.285v77.56c0 26.95-22.05 49-49 49H191.998v49.75L9.374 394.223c-12.5 12.492-12.5 32.758 0 45.25l48 48c6.243 6.25 14.44 9.375 22.626 9.375s16.384-2.625 22.626-8.875L285.25 305.847H352c5 .002 9.233-.082 13.917-.478 84.584-7.16 150.197-83.977 145.876-168.754zM96 432.847c-17.672 0-32-14.328-32-32 0-17.674 14.328-32 32-32 17.675 0 32 14.326 32 32 0 17.672-14.325 32-32 32zm176-191h-32l16-32h32l-16 32zm64 0h-32l16-32h32l-16 32zm64 0h-32l16-32h32l-16 32z"/>
</svg>
