<svg xmlns="http://www.w3.org/2000/svg" viewBox="0 0 512 512">
  <path d="M139.13 105.74h-22.26c-22.204 0-40.86 14.618-47.407 34.663C30.096 147.1 0 181.363 0 222.61s30.096 75.51 69.463 82.205c6.548 20.045 25.203 34.664 47.407 34.664h22.26c20.187 0 40.718.96 61.218 2.71V103.03c-20.5 1.745-41.03 2.71-61.218 2.71zM66.783 269.835c-19.435-6.89-33.39-25.46-33.39-47.228s13.955-40.337 33.39-47.23v94.458zm160.39 179.12l-11.96-71.75c-25.367-2.785-50.992-4.335-76.083-4.335h-22.26c-1.124 0-2.217-.125-3.33-.17l15.558 91.996c4.087 24.185 24.86 41.74 49.38 41.74 30.506 0 53.707-27.42 48.695-57.48zM478.61 5.565c-18.443 0-33.392 14.95-33.392 33.39V406.26c0 18.442 14.95 33.39 33.39 33.39S512 424.704 512 406.26V38.958c0-18.442-14.95-33.392-33.39-33.392zm-244.87 93.82v246.448c79.48 10.338 119.877 26.156 178.086 46.12V53.265c-57.784 19.815-98.276 35.74-178.087 46.12z"/>
</svg>
