<svg xmlns="http://www.w3.org/2000/svg" viewBox="0 0 512 512">
  <path d="M66.783 333.92v100.173c0 18.442 14.95 33.39 33.39 33.39s33.392-14.95 33.392-33.39V333.92H66.783zM50.087 133.57C22.467 133.57 0 156.04 0 183.66v66.783c0 27.62 22.468 50.088 50.087 50.088h83.478V133.57H50.087zm16.696 133.566H50.087c-9.206 0-16.696-7.49-16.696-16.696v-66.783c0-9.206 7.49-16.696 16.7-16.696h16.696v100.18zM166.957 133.57v166.946l211.478 74.542V59.025m66.782 85.675V61.217c0-11.428-11.256-19.533-22.195-15.766l-11.196 3.41v336.365l11.196 3.408c10.794 3.763 22.195-4.23 22.195-15.765V278.27c36.826 0 66.783-29.957 66.783-66.784S482.044 144.7 445.217 144.7zm0 100.114v-66.67c18.237-.33 33.39 14.93 33.39 33.34s-15.162 33.337-33.39 33.33z"/>
</svg>
