<?xml version="1.0" encoding="utf-8"?>
<!-- Generator: Adobe Illustrator 21.0.0, SVG Export Plug-In . SVG Version: 6.00 Build 0)  -->
<svg version="1.1" id="Capa_1" xmlns="http://www.w3.org/2000/svg" xmlns:xlink="http://www.w3.org/1999/xlink" x="0px" y="0px"
	 viewBox="0 0 30.7 24.6" style="enable-background:new 0 0 30.7 24.6;" xml:space="preserve">
<g>
	<path d="M28.6,6.6h-0.8v9.3c0,1.4-0.8,2.7-2.5,2.7H8.7V19c0,1.3,1.4,2.6,2.9,2.6h12.6l4.8,2.8l-0.7-2.8h0.2c1.5,0,2.2-1.3,2.2-2.6
		V8.8C30.7,7.5,30.1,6.6,28.6,6.6z"/>
	<path d="M22.8,0.2H3.6C1.9,0.2,0,1.7,0,3.1v11.6C0,16,1.6,17,3.2,17.1l-1,3.9l6.6-3.9h14c1.7,0,3.2-1,3.2-2.5V5.3V3.1
		C26,1.7,24.4,0.2,22.8,0.2z M6.5,10c-1,0-1.7-0.8-1.7-1.7s0.8-1.7,1.7-1.7c1,0,1.7,0.8,1.7,1.7S7.5,10,6.5,10z M13,10
		c-1,0-1.7-0.8-1.7-1.7S12,6.5,13,6.5s1.7,0.8,1.7,1.7S14,10,13,10z M19.5,10c-1,0-1.7-0.8-1.7-1.7s0.8-1.7,1.7-1.7
		c1,0,1.7,0.8,1.7,1.7S20.4,10,19.5,10z"/>
</g>
</svg>
