<svg xmlns="http://www.w3.org/2000/svg" width="585.354" height="585.354">
  <path d="M292.68 0c-94.39 0-171.184 76.79-171.184 171.183v97.767c0 1.11-1.37 2.983-2.448 3.34-9.257 3.088-16.775 5.763-23.657 8.416-8.205 3.164-14.395 12.26-14.395 21.157v224.64c0 8.838 6.15 17.94 14.305 21.173 63.096 25.003 129.504 37.678 197.378 37.678s134.282-12.678 197.382-37.68c8.152-3.232 14.3-12.333 14.3-21.17v-224.64c0-8.9-6.19-17.994-14.4-21.16-6.886-2.654-14.403-5.33-23.653-8.416-1.074-.358-2.445-2.23-2.445-3.342V171.18C463.857 76.79 387.068 0 292.68 0zm-46.627 370.28c0-25.768 20.875-46.62 46.623-46.62 25.746 0 46.62 20.85 46.62 46.62 0 17.076-9.628 31.372-23.31 39.476v77.08c0 12.887-10.426 23.312-23.31 23.312-12.887 0-23.312-10.425-23.312-23.31v-77.082c-13.68-8.104-23.31-22.4-23.31-39.475zM405 171.18v84.355c-36.834-7.926-74.623-11.94-112.306-11.943-37.666 0-75.447 4.015-112.338 11.934V171.18c0-61.935 50.386-112.32 112.32-112.32C354.61 58.86 405 109.245 405 171.18z"/>
</svg>
