<svg xmlns="http://www.w3.org/2000/svg" width="47.001" height="47.001">
  <path d="M46.907 20.12c-.163-.347-.51-.57-.896-.57h-2.92C41.23 9.453 32.36 1.776 21.73 1.776 9.748 1.776 0 11.522 0 23.5c0 11.98 9.746 21.726 21.726 21.726 7.73 0 14.94-4.16 18.816-10.857.546-.95.224-2.16-.722-2.7-.944-.55-2.152-.23-2.697.72-3.172 5.48-9.072 8.88-15.397 8.88-9.8 0-17.776-7.977-17.776-17.777s7.975-17.77 17.776-17.77c8.442 0 15.515 5.92 17.317 13.824H36.14c-.386 0-.733.224-.897.57-.163.35-.11.757.136 1.05l4.93 5.927c.19.225.462.355.76.355.29 0 .57-.13.754-.354l4.94-5.927c.245-.296.3-.705.134-1.05z"/>
  <path d="M21.726 6.713c-1.09 0-1.975.884-1.975 1.975v11.984c-.89.626-1.48 1.658-1.48 2.83 0 1.906 1.55 3.457 3.46 3.457.52 0 1.02-.13 1.46-.34l6.87 3.96c.31.18.65.265.99.265.684 0 1.348-.354 1.714-.988.545-.944.22-2.153-.724-2.698l-6.88-3.97c-.093-1.045-.636-1.957-1.45-2.527V8.69c0-1.09-.887-1.975-1.977-1.975zm0 18.27c-.817 0-1.48-.666-1.48-1.48 0-.817.664-1.482 1.48-1.482s1.48.67 1.48 1.49c0 .817-.664 1.48-1.48 1.48z"/>
</svg>
