<svg xmlns="http://www.w3.org/2000/svg" viewBox="0 0 58 58">
  <path d="M39.57 25.26c.15-.21.207-.344.23-.416-.123-.065-.286-.197-1.175-.197-.505 0-1.14.022-1.81.108.814.627 1.013.944 1.546.944.24 0 .91-.01 1.21-.44zm-19.034 7.374c.15-.047 1.02-.444 2.64-3.436-2.138 1.2-3.008 2.188-3.07 2.744-.01.092-.038.334.43.692z"/>
  <path d="M51.5 39V13.978c0-.766-.092-1.333-.55-1.792L39.313.55C38.963.2 38.48 0 37.985 0H8.963C7.777 0 6.5.916 6.5 2.926V39h45zm-14-35.61c0-.457.553-.686.877-.362l10.095 10.095c.324.324.095.877-.363.877H37.5V3.39zM18.432 31.756c.182-1.628 2.195-3.332 5.985-5.068 1.504-3.296 2.935-7.357 3.788-10.75-.998-2.172-1.968-4.99-1.26-6.643.247-.58.556-1.023 1.133-1.215.228-.077.804-.173 1.016-.173.504 0 .947.65 1.26 1.05.296.375.965 1.172-.372 6.8 1.348 2.785 3.258 5.62 5.088 7.563 1.31-.237 2.44-.358 3.358-.358 1.566 0 2.515.365 2.902 1.117.32.62.19 1.34-.39 2.16-.557.77-1.325 1.19-2.22 1.19-1.216 0-2.632-.77-4.21-2.29-2.838.59-6.152 1.65-8.83 2.82-.835 1.77-1.636 3.2-2.382 4.25-1.023 1.44-1.907 2.11-2.782 2.11-.348 0-.682-.12-.967-.33-1.05-.79-1.19-1.66-1.12-2.25zm2.79 14.102c-.142-.196-.34-.36-.595-.492-.255-.132-.593-.198-1.012-.198h-1.23v3.992h1.504c.2 0 .39-.034.59-.103.19-.068.37-.18.54-.335.16-.155.29-.37.39-.65.1-.277.15-.62.15-1.03 0-.165-.03-.355-.07-.568-.05-.214-.14-.42-.28-.616z"/>
  <path d="M29.343 18.174c-.716 2.474-1.66 5.145-2.674 7.564 2.09-.81 4.36-1.52 6.49-2.02-1.35-1.568-2.7-3.526-3.82-5.544zM6.5 41v15c0 1.01 1.22 2 2.463 2h40.074c1.243 0 2.463-.99 2.463-2V41h-45zm16.396 7.43c-.173.414-.415.763-.725 1.045-.31.282-.68.5-1.12.656s-.92.24-1.45.24h-1.21V54h-1.64V43.924h2.9c.43 0 .86.068 1.27.205.42.13.8.34 1.13.61.34.27.6.6.81.99s.31.82.31 1.3c0 .51-.083.97-.26 1.39zm10.056 2.378c-.178.588-.403 1.08-.677 1.477s-.58.71-.923.937-.672.398-.99.513c-.32.114-.612.187-.876.22-.264.03-.46.045-.588.045h-3.814V43.924h3.035c.84 0 1.59.135 2.23.403s1.17.627 1.6 1.073.74.955.95 1.524c.21.57.31 1.155.31 1.757 0 .83-.09 1.54-.27 2.13zm8.948-5.64h-4.635v3.172h4.21v1.12h-4.21V54h-1.668V43.924H41.9v1.244z"/>
  <path d="M30.765 46.282c-.287-.333-.677-.602-1.17-.807s-1.13-.308-1.913-.308h-.957v7.63h1.627c1.112 0 1.914-.356 2.406-1.067s.738-1.74.738-3.09c0-.42-.05-.834-.15-1.244-.1-.41-.294-.78-.58-1.114zm-2.03-36.57c-.097.033-1.33 1.757.097 3.216.95-2.115-.053-3.23-.096-3.216z"/>
</svg>
