<svg xmlns="http://www.w3.org/2000/svg" viewBox="0 0 300 300">
  <path d="M149.996 0C67.156 0 0 67.16 0 149.997S67.158 300 149.997 300 300 232.837 300 149.997 232.834 0 149.995 0zm71.306 107.945l-14.247 14.247-29-29-11.003 11.003 29 29-71.13 71.127-29-28.996-11.002 11.002 29 29-7.09 7.087-.134-.135c-.786 1.294-2.064 2.238-3.582 2.575l-27.043 6.03c-.403.09-.815.135-1.222.135-1.476 0-2.91-.58-3.973-1.647-1.364-1.36-1.932-3.322-1.512-5.203l6.027-27.035c.34-1.517 1.285-2.798 2.577-3.582l-.137-.137L192.3 78.94c1.678-1.674 4.404-1.674 6.082.006l22.922 22.917c1.678 1.678 1.678 4.404-.002 6.082z"/>
</svg>
