<svg xmlns="http://www.w3.org/2000/svg" viewBox="0 0 420 420">
  <path d="M245 115V0H60v265h300V115M147.812 354.644c1.26-1.5 1.89-3.69 1.89-6.57 0-1.5-.195-2.79-.585-3.87-.39-1.08-.915-1.98-1.575-2.7-.66-.72-1.41-1.245-2.25-1.575-.84-.33-1.68-.497-2.52-.497h-11.52v17.46h12.06c1.74 0 3.24-.75 4.5-2.25z"/>
  <path d="M275 15v70h70M60 420h300V295H60v125zm188.7-74.446c1.62-3.9 3.854-7.29 6.705-10.17 2.85-2.88 6.224-5.16 10.125-6.84 3.9-1.68 8.1-2.52 12.6-2.52 5.94 0 11.13 1.246 15.57 3.735 4.44 2.49 7.77 5.893 9.99 10.213l-10.98 8.28c-1.44-2.88-3.525-5.114-6.255-6.705-2.73-1.59-5.686-2.386-8.865-2.386-2.46 0-4.695.495-6.705 1.485-2.01.99-3.734 2.37-5.175 4.14-1.44 1.77-2.55 3.824-3.33 6.164-.78 2.34-1.17 4.86-1.17 7.56 0 2.76.42 5.31 1.26 7.65.84 2.34 2.01 4.366 3.51 6.076s3.285 3.045 5.355 4.004c2.07.96 4.365 1.44 6.885 1.44 5.76 0 10.95-2.67 15.57-8.01v-1.98h-12.42v-10.71h24.66v33.39h-12.24v-6.3c-4.86 4.5-10.47 6.75-16.83 6.75-4.2 0-8.16-.795-11.88-2.385-3.72-1.59-6.975-3.826-9.765-6.706-2.79-2.88-4.995-6.346-6.615-10.396s-2.43-8.506-2.43-13.366c0-4.38.81-8.52 2.43-12.42zm-71.64-19.08h11.52l29.79 37.53v-37.53h14.76v63.9h-11.88l-29.43-36.54v36.54h-14.76v-63.9zm-60.57 0h27.272c3.06 0 5.863.63 8.415 1.89 2.55 1.26 4.738 2.91 6.57 4.95 1.83 2.04 3.27 4.35 4.32 6.93 1.048 2.58 1.574 5.19 1.574 7.83 0 2.82-.493 5.52-1.483 8.1s-2.37 4.89-4.14 6.93c-1.77 2.04-3.915 3.66-6.436 4.86-2.52 1.2-5.31 1.8-8.37 1.8h-12.96v20.61h-14.76v-63.9z"/>
</svg>
