<?xml version="1.0" encoding="iso-8859-1"?>
<!-- Generator: Adobe Illustrator 19.0.0, SVG Export Plug-In . SVG Version: 6.00 Build 0)  -->
<svg version="1.1" id="Layer_1" xmlns="http://www.w3.org/2000/svg" xmlns:xlink="http://www.w3.org/1999/xlink" x="0px" y="0px"
	 viewBox="0 0 420 420" style="enable-background:new 0 0 420 420;" xml:space="preserve">
<g>
	<polygon points="245,115 245,0 60,0 60,265 360,265 360,115 	"/>
	<path d="M147.812,354.644c1.26-1.499,1.89-3.69,1.89-6.57c0-1.499-0.195-2.79-0.585-3.87c-0.391-1.08-0.915-1.98-1.575-2.7
		c-0.66-0.72-1.41-1.245-2.25-1.575c-0.841-0.329-1.68-0.495-2.52-0.495h-11.521v17.46h12.061
		C145.051,356.894,146.552,356.145,147.812,354.644z"/>
	<polygon points="275,15 275,85 345,85 	"/>
	<path d="M60,420h300V295H60V420z M248.7,345.554c1.62-3.9,3.854-7.29,6.705-10.17c2.849-2.88,6.224-5.159,10.125-6.84
		c3.899-1.679,8.1-2.52,12.6-2.52c5.94,0,11.129,1.246,15.57,3.735c4.439,2.491,7.77,5.895,9.99,10.215l-10.98,8.28
		c-1.44-2.88-3.525-5.114-6.255-6.705c-2.731-1.589-5.686-2.385-8.865-2.385c-2.461,0-4.695,0.495-6.705,1.485
		c-2.011,0.99-3.734,2.371-5.175,4.14c-1.44,1.771-2.551,3.825-3.33,6.165c-0.78,2.34-1.17,4.86-1.17,7.56
		c0,2.76,0.419,5.31,1.26,7.65c0.84,2.34,2.01,4.365,3.511,6.075c1.499,1.71,3.284,3.046,5.354,4.005
		c2.07,0.96,4.365,1.44,6.885,1.44c5.761,0,10.949-2.669,15.57-8.01v-1.98h-12.42v-10.71h24.66v33.39h-12.24v-6.3
		c-4.86,4.5-10.471,6.75-16.83,6.75c-4.2,0-8.16-0.795-11.88-2.385c-3.721-1.589-6.975-3.825-9.765-6.705
		c-2.79-2.88-4.995-6.345-6.615-10.395c-1.62-4.05-2.431-8.505-2.431-13.365C246.27,353.595,247.08,349.455,248.7,345.554z
		 M177.061,326.474h11.52l29.79,37.53v-37.53h14.76v63.9h-11.88l-29.43-36.54v36.54h-14.76V326.474z M116.491,326.474h27.271
		c3.06,0,5.863,0.63,8.415,1.89c2.549,1.26,4.738,2.911,6.569,4.95c1.83,2.041,3.27,4.351,4.32,6.93
		c1.049,2.581,1.575,5.19,1.575,7.83c0,2.821-0.495,5.521-1.485,8.1c-0.99,2.581-2.371,4.891-4.14,6.93
		c-1.771,2.041-3.915,3.661-6.436,4.86c-2.52,1.201-5.31,1.8-8.37,1.8h-12.96v20.61h-14.76V326.474z"/>
</g>
<g>
</g>
<g>
</g>
<g>
</g>
<g>
</g>
<g>
</g>
<g>
</g>
<g>
</g>
<g>
</g>
<g>
</g>
<g>
</g>
<g>
</g>
<g>
</g>
<g>
</g>
<g>
</g>
<g>
</g>
</svg>
