<svg xmlns="http://www.w3.org/2000/svg" width="81.016" height="81.016">
  <circle cx="40.509" cy="17.217" r="17.217"/>
  <path d="M47.81 35.606H33.204c-12.152 0-22.04 9.888-22.04 22.042v17.87l.044.278 1.232.385c11.597 3.626 21.675 4.837 29.97 4.837 16.2 0 25.59-4.62 26.172-4.914l1.15-.583h.12V57.65c.002-12.154-9.885-22.04-22.04-22.04zm-3.9 34.677l-3.152 4.613c-.043.063-.11.1-.186.1h-.006c-.074 0-.145-.04-.186-.104l-2.928-4.616c-.025-.04-.037-.086-.035-.136l1.465-22.403c.008-.12.105-.21.225-.21h3.04c.118 0 .216.09.226.21l1.574 22.4c.006.054-.01.103-.037.146zM42.484 46.85H38.87l-3.14-6.492c0-.623.504-1.125 1.127-1.125H44.4c.62 0 1.125.502 1.125 1.125l-3.04 6.492z"/>
</svg>
