<svg xmlns="http://www.w3.org/2000/svg" viewBox="0 0 513.321 513.321">
  <path fill="#406180" d="M269.493 295.16c32.082-23.528 51.332-62.027 51.332-102.665 0-70.58-57.75-128.33-128.33-128.33s-128.33 57.75-128.33 128.33c0 40.638 19.25 79.137 51.332 102.664C53.47 322.96 8.555 380.71 0 449.152h42.777c10.694-72.72 74.86-128.33 149.718-128.33s139.024 55.61 149.718 128.33h42.777c-8.555-68.443-53.47-126.19-115.497-153.996zm-76.998-17.112c-47.055 0-85.553-38.5-85.553-85.553s38.5-85.553 85.553-85.553 85.553 38.5 85.553 85.553-38.498 85.553-85.553 85.553z"/>
  <path fill="#3ccc91" d="M442.74 290.88c17.11-21.387 27.804-49.192 27.804-76.997 0-76.998-68.443-136.885-143.302-128.33 6.416 6.416 10.694 14.972 14.972 23.527 4.278 6.416 6.416 12.833 8.555 19.25 49.19 8.554 76.995 44.915 76.995 85.552 0 27.805-14.972 53.47-34.22 68.443-6.417 4.278-8.556 10.694-8.556 17.11 0 10.694 6.416 19.25 17.11 21.388 38.5 8.555 68.443 42.777 68.443 83.414h42.777c0-47.052-27.804-91.967-70.58-113.356z"/>
</svg>
