<svg xmlns="http://www.w3.org/2000/svg" width="85.988" height="85.987">
  <path d="M77.993 30.884c-2.692 0-4.878 2.185-4.878 4.868 0 2.685 2.186 4.867 4.878 4.867 2.683 0 4.867-2.19 4.867-4.87 0-2.69-2.185-4.87-4.867-4.87zm-69.988 0c-2.692 0-4.878 2.185-4.878 4.868 0 2.685 2.186 4.867 4.878 4.867 2.685 0 4.87-2.19 4.87-4.87 0-2.69-2.185-4.87-4.87-4.87zm55.5-8.854c-3.998 0-7.24 3.25-7.24 7.25 0 3.992 3.242 7.236 7.24 7.236 3.997 0 7.25-3.244 7.25-7.236 0-3.996-3.253-7.25-7.25-7.25zm22.483 44.058h-8.254V50.896c0-2.61-.767-5.033-2-7.146.727-.212 1.472-.363 2.26-.363 4.4 0 7.994 3.594 7.994 8.006v14.695zM22.483 22.03c-4 0-7.25 3.25-7.25 7.25 0 3.992 3.25 7.236 7.25 7.236 3.987 0 7.237-3.244 7.237-7.236 0-3.996-3.25-7.25-7.237-7.25zM8.005 43.387c.787 0 1.522.15 2.25.363-1.245 2.113-2 4.536-2 7.146v15.192H0V51.393c0-4.413 3.596-8.006 8.005-8.006zm34.98-35.832c-5.9 0-10.71 4.805-10.71 10.71 0 5.906 4.806 10.717 10.71 10.717 5.907 0 10.718-4.81 10.718-10.716.005-5.907-4.81-10.71-10.717-10.71zm32.098 64.187H62.438V48.627c0-3.18-.84-6.136-2.195-8.787 1.035-.306 2.123-.523 3.262-.523 6.38 0 11.578 5.188 11.578 11.58V71.74zM23.537 48.627v23.115h-12.63V50.896c0-6.385 5.192-11.58 11.582-11.58 1.13 0 2.21.218 3.24.524-1.358 2.65-2.2 5.608-2.2 8.787zm2.65 29.806h33.6V48.627c0-9.264-7.54-16.798-16.802-16.798-9.27 0-16.797 7.53-16.797 16.79v29.81z" fill="#010002"/>
</svg>
