<svg xmlns="http://www.w3.org/2000/svg" viewBox="0 0 512 512">
  <path fill="#406180" d="M188.51 286.45c-2.89-4.836-9.15-6.415-13.987-3.526-32.034 19.138-55.385 50.835-64.067 86.962-1.316 5.478 2.058 10.984 7.534 12.3.802.193 1.603.285 2.392.285 4.607 0 8.786-3.14 9.91-7.81 7.406-30.82 27.342-57.87 54.694-74.22 4.834-2.88 6.412-9.15 3.524-13.98zm57.324-23.15c-10.9 0-21.754 1.265-32.265 3.76-5.48 1.3-8.87 6.797-7.57 12.278 1.11 4.69 5.29 7.846 9.91 7.846.78 0 1.57-.09 2.36-.278 8.97-2.13 18.24-3.21 27.55-3.21 5.63 0 10.2-4.565 10.2-10.198s-4.57-10.2-10.2-10.2z"/>
  <path fill="#406180" d="M437.88 284.194c-17.588-15.873-38.627-27.987-61.843-35.07 26.677-16.178 44.54-45.496 44.54-78.908C420.577 119.37 379.21 78 328.362 78c-4.832 0-9.577.376-14.21 1.096C296.39 62.21 272.384 51.83 246 51.83c-26.385 0-50.39 10.378-68.152 27.267-4.633-.72-9.38-1.095-14.212-1.095-50.847 0-92.214 41.368-92.214 92.215 0 33.412 17.863 62.73 44.54 78.907C48.912 269.582 0 332.016 0 405.67c0 5.632 4.567 10.198 10.2 10.198h336.52c15.34 26.464 43.974 44.303 76.698 44.303 48.844 0 88.582-39.73 88.582-88.58 0-43.92-32.13-80.47-74.12-87.39zm-32.604.684c-8.304 1.735-16.182 4.64-23.46 8.526-9.02-10.897-19.327-20.692-30.683-29.155 19.66 3.15 38 10.31 54.143 20.62zM329.95 98.44c38.867.85 70.23 32.708 70.23 71.776 0 39.6-32.218 71.817-71.818 71.817-10.953 0-21.336-2.474-30.634-6.878 28.322-17.433 47.248-48.72 47.248-84.348 0-19.217-5.51-37.168-15.026-52.367zm-145.143 3.148c4.772-5.922 10.38-11.138 16.65-15.47 12.67-8.75 28.014-13.89 44.542-13.89 16.52 0 31.87 5.14 44.54 13.89 6.26 4.332 11.87 9.548 16.65 15.47 10.86 13.48 17.38 30.598 17.38 49.217 0 31.604-18.77 58.892-45.73 71.355-6.81 3.146-14.13 5.347-21.82 6.433-3.61.51-7.29.79-11.03.79-3.75 0-7.43-.28-11.04-.79-7.685-1.085-15.01-3.286-21.818-6.433-26.966-12.463-45.73-39.75-45.73-71.355 0-18.62 6.523-35.737 17.386-49.217zM91.82 170.216c0-39.068 31.362-70.926 70.23-71.777-9.516 15.19-15.026 33.14-15.026 52.36 0 35.63 18.925 66.91 47.247 84.35-9.29 4.4-19.68 6.88-30.63 6.88-39.6 0-71.81-32.22-71.81-71.82zM70.016 395.47H20.758c4.707-66.63 55.193-120.81 120.11-131.22-40.6 30.26-67.775 77.563-70.852 131.22zm268.094 0H90.44c3.81-58.73 40.298-108.693 91.413-131.863 11.944-5.415 24.685-9.37 37.997-11.627 8.505-1.442 17.24-2.197 26.15-2.197s17.643.755 26.147 2.197c13.312 2.258 26.053 6.212 37.998 11.627 21.24 9.628 39.953 23.875 54.845 41.463-18.474 16.246-30.154 40.043-30.154 66.52 0 8.272 1.144 16.28 3.274 23.88zm137.094 20.398c-12.515 14.615-31.08 23.904-51.786 23.904s-39.27-9.29-51.785-23.905c-5.133-5.994-9.25-12.88-12.072-20.398-2.79-7.44-4.32-15.49-4.32-23.88 0-19.77 8.46-37.59 21.94-50.05 5-4.62 10.67-8.51 16.87-11.48 8.9-4.27 18.86-6.66 29.38-6.66 1.81 0 3.6.09 5.38.23 14.69 1.15 28.08 6.97 38.696 15.98 14.736 12.512 24.113 31.16 24.113 51.97 0 4.11-.388 8.14-1.09 12.06-2.18 12.15-7.587 23.2-15.31 32.212z"/>
  <path fill="#3ccc91" d="M459.336 362.968h-25.593v-25.592c0-5.633-4.567-10.2-10.2-10.2s-10.198 4.567-10.198 10.2v25.592h-25.592c-5.632 0-10.2 4.566-10.2 10.2 0 5.632 4.568 10.198 10.2 10.198h25.592v25.592c0 5.633 4.567 10.2 10.2 10.2s10.198-4.567 10.198-10.2v-25.592h25.593c5.632 0 10.2-4.566 10.2-10.2 0-5.632-4.567-10.198-10.2-10.198z"/>
</svg>
