<svg xmlns="http://www.w3.org/2000/svg" width="460.298" height="460.297">
  <path d="M230.15 120.94L65.985 256.273c0 .19-.048.472-.144.855-.09.38-.14.655-.14.85V395.02c0 4.948 1.81 9.236 5.43 12.847 3.616 3.612 7.898 5.43 12.847 5.43H193.6V303.664h73.1v109.64h109.63c4.947 0 9.235-1.814 12.846-5.435 3.617-3.61 5.432-7.9 5.432-12.85V257.98c0-.76-.104-1.334-.288-1.707L230.148 120.94z"/>
  <path d="M457.122 225.438L394.6 173.476V56.99c0-2.664-.856-4.854-2.574-6.568-1.704-1.712-3.894-2.568-6.563-2.568h-54.816c-2.666 0-4.855.856-6.57 2.568-1.71 1.714-2.566 3.905-2.566 6.567v55.67l-69.66-58.25c-6.08-4.95-13.32-7.425-21.69-7.425s-15.61 2.474-21.7 7.423L3.17 225.432c-1.903 1.52-2.946 3.57-3.14 6.14-.193 2.57.472 4.81 1.997 6.714l17.7 21.128c1.523 1.712 3.52 2.76 5.994 3.142 2.29.192 4.57-.476 6.86-1.998L230.15 95.81l197.57 164.74c1.525 1.33 3.52 1.992 5.995 1.992h.858c2.47-.377 4.463-1.43 5.996-3.14l17.7-21.124c1.52-1.905 2.19-4.144 1.99-6.715-.2-2.563-1.24-4.61-3.14-6.132z"/>
</svg>
