<?xml version="1.0" encoding="utf-8"?>
<!-- Generator: Adobe Illustrator 19.0.0, SVG Export Plug-In . SVG Version: 6.00 Build 0)  -->
<svg version="1.2" baseProfile="tiny" id="Capa_1" xmlns="http://www.w3.org/2000/svg" xmlns:xlink="http://www.w3.org/1999/xlink"
	 x="0px" y="0px" viewBox="-304.5 351.5 90 90" xml:space="preserve">
<g>
	<g>
		<path d="M-234.7,379.8l-2.3-2.3c-1.4-1.4-4.3-1.4-5.7,0l-1.1,1.1l-3.1-3.1c-1.4-1.4-4.3-1.4-5.7,0l-2.3,2.3c-1.7,1.4-1.7,4,0,5.7
			l3.1,3.1l-7.1,7.1c-1.7-0.9-3.7-1.1-5.4-1.1c-4.8,0-8.8,2.3-11.7,6c-3.7,4.8-3.7,11.4-0.6,16.3c2.9,4,7.4,6.6,12.3,6.6
			c4,0,7.4-1.4,10.3-4.3c4-4,5.1-10,3.1-15.4l16.3-16.3C-233,384.1-233,381.6-234.7,379.8z M-236.4,383.6l-17.1,17.1
			c-0.6,0.6-0.6,1.1-0.3,1.7c2,4.3,1.1,9.7-2.3,13.1c-2.3,2.3-5.1,3.4-8.3,3.4c-4,0-7.4-2-9.7-5.4c-2.6-4-2.6-9.4,0.3-13.1
			c2.3-3.1,5.7-4.8,9.4-4.8c1.7,0,3.4,0.3,5.1,1.7c0.6,0.3,1.4,0.3,1.7-0.3l8.8-8.8c0-0.3,0.3-0.6,0.3-1.1c0-0.6,0-0.9-0.3-1.1
			l-4.3-4.3c-0.6-0.3-0.6-1.1,0-1.7l2.3-2.3c0.3-0.6,1.1-0.6,1.7,0l4.3,4.3c0.6,0.6,1.4,0.6,2,0l2.3-2.3c0.3-0.6,1.1-0.6,1.7,0
			l2.3,2.3C-235.8,382.1-235.8,383-236.4,383.6L-236.4,383.6z"/>
		<path d="M-268.4,403c-1.1,1.1-1.7,2.6-1.7,4c0,1.4,0.6,2.9,1.7,4c1.1,1.1,2.6,1.7,4,1.7s2.9-0.6,4-1.7c1.1-1.1,1.7-2.6,1.7-4
			c0-1.4-0.6-2.9-1.7-4C-262.4,400.7-266.1,400.7-268.4,403z M-262.4,408.9c-1.1,1.1-2.9,1.1-4,0c-0.6-0.6-0.9-1.1-0.9-2
			c0-0.9,0.3-1.4,0.9-2c0.6-0.6,1.1-0.9,2-0.9c0.9,0,1.4,0.3,2,0.9s0.9,1.1,0.9,2C-261.5,407.8-261.8,408.4-262.4,408.9z"/>
	</g>
</g>
<circle fill="none" stroke="#2365c8" stroke-width="4" stroke-miterlimit="10" cx="-258.4" cy="397.4" r="41"/>
</svg>
