<?xml version="1.0" encoding="utf-8"?>
<!-- Generator: Adobe Illustrator 21.0.0, SVG Export Plug-In . SVG Version: 6.00 Build 0)  -->
<svg version="1.1" id="Слой_1" xmlns="http://www.w3.org/2000/svg" xmlns:xlink="http://www.w3.org/1999/xlink" x="0px" y="0px"
	 viewBox="0 0 60.9 61" style="enable-background:new 0 0 60.9 61;" xml:space="preserve">

<circle fill="none" stroke="#a1a5b7" stroke-width="3" stroke-miterlimit="10" class="st0" cx="30.5" cy="30.2" r="28.1"/>
<path d="M42.4,20.3c0.2-0.2,0.3-0.5,0.3-0.7c0-0.2-0.1-0.5-0.3-0.7L41,17.5c-0.2-0.2-0.5-0.3-0.7-0.3s-0.5,0.1-0.7,0.3L39.1,18
	c-0.2,0.2-0.5,0.2-0.7,0l-0.5-0.5c-0.2-0.2-0.4-0.3-0.7-0.3c-0.3,0-0.5,0.1-0.7,0.3l-1.4,1.4c-0.4,0.4-0.4,1,0,1.4l0.5,0.5
	c0.2,0.2,0.2,0.5,0,0.7L35.1,22c-0.2,0.2-0.5,0.2-0.7,0l-0.5-0.5c-0.4-0.4-1-0.4-1.4,0l-1.4,1.4c-0.4,0.4-0.4,1,0,1.4l0.5,0.5
	c0.2,0.2,0.2,0.5,0,0.7l-0.8,0.8c-0.2,0.2-0.4,0.2-0.6,0.1c-1.3-0.8-2.8-1.2-4.5-1.2c-5,0-9,4-9,9s4,9,9,9s9-4,9-9
	c0-1.6-0.4-3.1-1.2-4.5c-0.1-0.2-0.1-0.4,0.1-0.6C33.6,29.1,42.4,20.3,42.4,20.3z M25.7,39.2c-2.8,0-5-2.2-5-5s2.2-5,5-5s5,2.2,5,5
	S28.5,39.2,25.7,39.2z"/>
</svg>
