<svg xmlns="http://www.w3.org/2000/svg" viewBox="0 0 513.32 513.32">
  <path d="M342.213 363.602c23.527 0 42.777-19.25 42.777-42.777s-19.25-42.777-42.777-42.777-42.777 19.25-42.777 42.777 19.25 42.777 42.777 42.777z"/>
  <path d="M85.553 149.718c-23.527 0-42.777-19.25-42.777-42.777s19.25-42.775 42.777-42.775h342.213v42.777h42.777V21.39H85.553C38.5 21.388 0 59.888 0 106.942V384.99c0 59.887 47.055 106.942 106.942 106.942H513.32V149.718H85.553zm384.99 299.437h-363.6c-36.36 0-64.166-27.805-64.166-64.165V179.662c12.833 8.555 27.805 12.833 42.777 12.833h384.99v256.66z"/>
</svg>
