<?xml version="1.0" encoding="utf-8"?>
<!-- Generator: Adobe Illustrator 21.0.0, SVG Export Plug-In . SVG Version: 6.00 Build 0)  -->
<svg version="1.1" id="Capa_1" xmlns="http://www.w3.org/2000/svg" xmlns:xlink="http://www.w3.org/1999/xlink" x="0px" y="0px"
	 viewBox="0 0 328.7 280" style="enable-background:new 0 0 328.7 280;" xml:space="preserve">
<g>
	<g>
		<path d="M19.3,191h-10c-2.8,0-5,2.2-5,5v74c0,2.8,2.2,5,5,5h10c2.8,0,5-2.2,5-5v-74C24.3,193.2,22.1,191,19.3,191z"/>
		<path d="M79.3,191h-10c-2.8,0-5,2.2-5,5v74c0,2.8,2.2,5,5,5h10c2.8,0,5-2.2,5-5v-74C84.3,193.2,82.1,191,79.3,191z"/>
		<path d="M139.3,137h-10c-2.8,0-5,2.2-5,5v128c0,2.8,2.2,5,5,5h10c2.8,0,5-2.2,5-5V142C144.3,139.2,142.1,137,139.3,137z"/>
		<path d="M199.3,95h-10c-2.8,0-5,2.2-5,5v170c0,2.8,2.2,5,5,5h10c2.8,0,5-2.2,5-5V100C204.3,97.2,202.1,95,199.3,95z"/>
		<path d="M259.3,137h-10c-2.8,0-5,2.2-5,5v128c0,2.8,2.2,5,5,5h10c2.8,0,5-2.2,5-5V142C264.3,139.2,262.1,137,259.3,137z"/>
		<path d="M319.3,71h-10c-2.8,0-5,2.2-5,5v194c0,2.8,2.2,5,5,5h10c2.8,0,5-2.2,5-5V76C324.3,73.2,322.1,71,319.3,71z"/>
	</g>
	<path d="M314.3,3.7c-7.9,0-14.3,6.4-14.3,14.3c0,3,0.9,5.8,2.6,8.1l-43.8,62.8c-1.4-0.5-2.9-0.7-4.4-0.7c-3.4,0-6.5,1.2-9,3.2
		l-37.1-26.8c0.2-1.1,0.4-2.1,0.4-3.3c0-7.9-6.4-14.3-14.3-14.3S180,53.4,180,61.3c0,1.3,0.2,2.6,0.5,3.8l-40.2,31.3
		c-1.8-0.8-3.9-1.3-6-1.3c-7.9,0-14.3,6.4-14.3,14.3l-36.2,19.3c-2.5-2.2-5.8-3.6-9.5-3.6c-5.4,0-10,3-12.5,7.3l-33.5-5.2
		c-1.3-6.5-7.1-11.5-14-11.5C6.4,115.7,0,122.1,0,130c0,7.9,6.4,14.3,14.3,14.3c5.4,0,10-3,12.5-7.3l33.5,5.2
		c1.3,6.5,7.1,11.5,14,11.5c7.9,0,14.3-6.4,14.3-14.3c0-0.6-0.1-1.3-0.1-1.9l35-18.7c2.6,3,6.5,4.9,10.8,4.9
		c7.9,0,14.3-6.4,14.3-14.3c0-2.1-0.5-4.1-1.3-5.8l38.9-30.3c2.3,1.5,5,2.4,8,2.4c3.1,0,6-1,8.4-2.7l37.5,27.1
		c-0.1,0.8-0.2,1.7-0.2,2.5c0,7.9,6.4,14.3,14.3,14.3c7.9,0,14.3-6.4,14.3-14.3c0-2.7-0.8-5.2-2.1-7.4l44.2-63.3
		c1.1,0.3,2.3,0.5,3.6,0.5c7.9,0,14.3-6.4,14.3-14.3C328.7,10.1,322.2,3.7,314.3,3.7z"/>
</g>
</svg>
