<svg xmlns="http://www.w3.org/2000/svg" viewBox="0 0 512.001 512.001">
  <path d="M504.45 365.9c-60.22-60.236-69.282-90.46-69.282-186.7C435.168 80.23 354.955 0 256.002 0S76.836 80.23 76.836 179.2c0 51.89-1.382 71.262-8.525 95.044-8.88 29.628-27.116 57.993-60.763 91.657-16.12 16.13-4.7 43.7 18.1 43.7H167.7l-1.29 12.8c0 49.487 40.107 89.6 89.583 89.6s89.583-40.113 89.583-89.6l-1.29-12.8H486.35c22.81 0 34.228-27.57 18.1-43.7zM256.01 486.4c-35.337 0-63.99-28.663-63.99-64l1.288-12.8h125.39l1.305 12.8c0 35.337-28.656 64-63.993 64zM25.653 384c76.783-76.8 76.783-128 76.783-204.8 0-84.82 68.753-153.6 153.566-153.6s153.566 68.78 153.574 153.6c0 76.8 0 128 76.783 204.8H25.65z"/>
</svg>
