<svg xmlns="http://www.w3.org/2000/svg" width="52.112" height="52.111">
  <path d="M48.283 6.665c-.338-.336-.735-.505-1.196-.505-.23 0-.712.188-1.444.56-.735.37-1.517.785-2.337 1.247-.823.46-1.797.875-2.922 1.247-1.123.37-2.162.56-3.12.56-.884 0-1.662-.17-2.335-.506-2.23-1.044-4.17-1.823-5.818-2.337-1.646-.51-3.416-.77-5.31-.77-3.273 0-7 1.067-11.178 3.19-.862.43-1.48.764-1.88 1.008l-.397-2.91c.896-.78 1.475-1.915 1.475-3.196 0-2.35-1.9-4.25-4.25-4.25s-4.25 1.903-4.25 4.25c0 1.53.82 2.86 2.034 3.61l5.74 42.09c.17 1.253 1.24 2.16 2.472 2.16.11 0 .225-.007.34-.02 1.37-.187 2.326-1.446 2.14-2.814L13.745 32.36c4.186-2.078 7.807-3.125 10.853-3.125 1.29 0 2.55.19 3.78.583 1.23.39 2.254.813 3.067 1.272.81.46 1.772.887 2.88 1.274 1.106.39 2.2.585 3.278.585 2.726 0 5.99-1.03 9.796-3.08.48-.25.827-.496 1.05-.73.22-.24.33-.58.33-1.025V7.86c0-.46-.166-.858-.5-1.195z"/>
</svg>
