<svg xmlns="http://www.w3.org/2000/svg" width="25.73" height="25.73">
  <path d="M24.408.597L.706 13.027c-.975.51-.935 1.26.088 1.664l3.026 1.2c1.02.406 2.57.187 3.437-.492L20.4 5.03c.863-.68.956-.58.205.224l-10.39 11.123c-.753.8-.53 1.783.495 2.182l.354.134c1.024.396 2.698 1.062 3.717 1.478l3.36 1.366c1.02.415 1.855.76 1.855.765 0 .006.007.025.012.026.005.002.246-.864.534-1.926L25.654 1.6C25.94.537 25.383.087 24.407.597zM10.324 19.82l-2.322-.95c-1.018-.417-1.506.072-1.084 1.09 0 0 2.156 5.193 2.096 5.376-.062.182 2.068-3.082 2.068-3.082.602-.922.26-2.017-.758-2.434z"/>
</svg>
