<svg xmlns="http://www.w3.org/2000/svg" viewBox="0 0 60 60">
  <path d="M5.508 12.424c.502-.23.723-.822.493-1.325-.23-.51-.82-.73-1.32-.5-.69.313-1.34.73-1.91 1.23-.416.36-.46.992-.1 1.41.198.23.477.344.756.344.23 0 .466-.08.655-.244.434-.376.917-.687 1.438-.925zM9 11.884h2c.553 0 1-.447 1-1s-.447-1-1-1H9c-.553 0-1 .447-1 1s.447 1 1 1zm6 0h2c.553 0 1-.447 1-1s-.447-1-1-1h-2c-.553 0-1 .447-1 1s.447 1 1 1zm-4 12H9c-.553 0-1 .447-1 1s.447 1 1 1h2c.553 0 1-.447 1-1s-.447-1-1-1zm12 0h-2c-.553 0-1 .447-1 1s.447 1 1 1h2c.553 0 1-.447 1-1s-.447-1-1-1zm-6 0h-2c-.553 0-1 .447-1 1s.447 1 1 1h2c.553 0 1-.447 1-1s-.447-1-1-1zm-11.492-.54c-.52-.238-1.003-.55-1.436-.925-.417-.37-1.048-.32-1.41.1-.362.41-.317 1.05.1 1.41.577.5 1.22.91 1.914 1.23.135.06.276.09.415.09.38 0 .75-.22.91-.59.23-.503.01-1.097-.49-1.326zm23.492.54h-2c-.553 0-1 .447-1 1s.447 1 1 1h2c.553 0 1-.447 1-1s-.447-1-1-1zm18 0h-2c-.553 0-1 .447-1 1s.447 1 1 1h2c.553 0 1-.447 1-1s-.447-1-1-1zm6 0h-2c-.553 0-1 .447-1 1s.447 1 1 1h2c.553 0 1-.447 1-1s-.447-1-1-1zm-18 0h-2c-.553 0-1 .447-1 1s.447 1 1 1h2c.553 0 1-.447 1-1s-.447-1-1-1zm6 0h-2c-.553 0-1 .447-1 1s.447 1 1 1h2c.553 0 1-.447 1-1s-.447-1-1-1zM5.508 53.344c-.52-.238-1.003-.55-1.436-.925-.417-.37-1.048-.32-1.41.1-.362.41-.317 1.05.1 1.41.577.5 1.22.91 1.914 1.23.135.06.276.09.415.09.38 0 .75-.22.91-.59.23-.503.01-1.097-.49-1.326zm11.492.54h-2c-.553 0-1 .447-1 1s.447 1 1 1h2c.553 0 1-.447 1-1s-.447-1-1-1zm-6 0H9c-.553 0-1 .447-1 1s.447 1 1 1h2c.553 0 1-.447 1-1s-.447-1-1-1zm24 0h-2c-.553 0-1 .447-1 1s.447 1 1 1h2c.553 0 1-.447 1-1s-.447-1-1-1zm3 1c0 .553.447 1 1 1h2c.553 0 1-.447 1-1s-.447-1-1-1h-2c-.553 0-1 .447-1 1zm7 1h2c.553 0 1-.447 1-1s-.447-1-1-1h-2c-.553 0-1 .447-1 1s.447 1 1 1zm-16-2h-2c-.553 0-1 .447-1 1s.447 1 1 1h2c.553 0 1-.447 1-1s-.447-1-1-1zm22 2h2c.553 0 1-.447 1-1s-.447-1-1-1h-2c-.553 0-1 .447-1 1s.447 1 1 1zm-28-2h-2c-.553 0-1 .447-1 1s.447 1 1 1h2c.553 0 1-.447 1-1s-.447-1-1-1zm21-15c0 2.206 1.794 4 4 4s4-1.794 4-4-1.794-4-4-4-4 1.794-4 4zm4-2c1.103 0 2 .897 2 2s-.897 2-2 2-2-.897-2-2 .897-2 2-2z"/>
  <path d="M42.942 5.884L37.506.448c-.443-.443-1.166-.443-1.61 0L33.85 2.494 31.807.448c-.443-.443-1.166-.443-1.61 0L24.76 5.884H8c-4.41 0-8 3.59-8 8v38.848c0 3.943 3.21 7.152 7.152 7.152H60v-54H42.942zm-6.24-3.412l3.412 3.412 14 14h-5.39L37.454 8.616c-.422-.41-1.085-.41-1.52.01l-11.252 11.26h-5.39L35.266 3.91l1.436-1.438zm9.194 17.412H27.51l9.19-9.194 9.194 9.194zM31 2.472l1.437 1.437-15.975 15.97h-2.874l14-14L31 2.47zM8 7.884h14.76l-2.06 2.06c-.304.1-.536.33-.634.634l-9.306 9.306H8c-3.31 0-6-2.69-6-6s2.69-6 6-6zm50 36H47c-2.757 0-5-2.243-5-5s2.243-5 5-5h11v10zm0-20h-1c-.553 0-1 .447-1 1s.447 1 1 1h1v6H47c-3.86 0-7 3.14-7 7s3.14 7 7 7h11v8h-1c-.553 0-1 .447-1 1s.447 1 1 1h1v2H7.152c-2.84 0-5.152-2.31-5.152-5.152v-2.204c.233-.25.345-.603.24-.954-.16-.546-.24-1.115-.24-1.69V20.528c.233-.25.345-.603.24-.954-.018-.065-.025-.132-.042-.197.09.095.18.188.275.278.086.083.175.162.265.24.112.1.226.194.343.286.1.08.19.15.29.22.12.09.25.17.37.25.1.068.21.13.31.19.13.076.27.146.408.214.105.053.21.106.318.154.144.064.29.12.436.175.108.04.215.083.325.12.158.05.318.09.478.133.107.03.21.06.32.084.18.04.364.063.55.09.09.012.18.03.274.04.28.03.564.047.85.047h50v1.996zm-1.058-4l-8-8H49c.553 0 1-.447 1-1s-.447-1-1-1h-2c-.017 0-.03.01-.048.01l-2.01-2.01H58v12h-1.058z"/>
  <path d="M55 9.884h-2c-.553 0-1 .447-1 1s.447 1 1 1h2c.553 0 1-.447 1-1s-.447-1-1-1z"/>
</svg>
