<svg xmlns="http://www.w3.org/2000/svg" viewBox="0 0 284.999 284.999">
  <path d="M246.158 153.932H38.84c-7.354 0-13.316 5.962-13.316 13.316 0 7.35 5.962 13.307 13.316 13.307h207.318c7.354 0 13.316-5.956 13.316-13.307 0-7.354-5.962-13.316-13.316-13.316zM59.56 225.095c-5.517 0-9.982 4.47-9.982 9.98v3.33c0 5.517 4.465 9.985 9.982 9.985 5.523 0 9.99-4.47 9.99-9.985v-3.33c0-5.51-4.468-9.98-9.99-9.98zm0-36.615c-5.517 0-9.982 4.475-9.982 9.986v3.327c0 5.52 4.465 9.99 9.982 9.99 5.523 0 9.99-4.47 9.99-9.99v-3.327c0-5.51-4.468-9.986-9.99-9.986zm0 73.227c-5.517 0-9.982 4.468-9.982 9.98v3.327c0 5.52 4.465 9.985 9.982 9.985 5.523 0 9.99-4.47 9.99-9.99v-3.33c0-5.51-4.468-9.98-9.99-9.98zm41.47-36.612c-5.518 0-9.99 4.47-9.99 9.98v3.33c0 5.517 4.472 9.985 9.99 9.985s9.988-4.47 9.988-9.985v-3.33c0-5.51-4.472-9.98-9.99-9.98zm0 36.612c-5.518 0-9.99 4.468-9.99 9.98v3.327c0 5.52 4.472 9.985 9.99 9.985s9.988-4.47 9.988-9.99v-3.33c0-5.51-4.472-9.98-9.99-9.98zm0-73.227c-5.518 0-9.99 4.475-9.99 9.986v3.327c0 5.52 4.472 9.99 9.99 9.99s9.988-4.47 9.988-9.99v-3.327c0-5.51-4.472-9.986-9.99-9.986zm41.47 73.227c-5.518 0-9.983 4.468-9.983 9.98v3.327c0 5.52 4.465 9.985 9.982 9.985s9.98-4.47 9.98-9.99v-3.33c0-5.51-4.47-9.98-9.98-9.98zm0-36.612c-5.518 0-9.983 4.47-9.983 9.98v3.33c0 5.517 4.465 9.985 9.982 9.985s9.98-4.47 9.98-9.985v-3.33c0-5.51-4.47-9.98-9.98-9.98zm0-36.615c-5.518 0-9.983 4.475-9.983 9.986v3.327c0 5.52 4.465 9.99 9.982 9.99s9.98-4.47 9.98-9.99v-3.327c0-5.51-4.47-9.986-9.98-9.986zm41.47 0c-5.518 0-9.99 4.475-9.99 9.986v3.327c0 5.52 4.472 9.99 9.99 9.99s9.988-4.47 9.988-9.99v-3.327c0-5.51-4.472-9.986-9.99-9.986zm0 73.227c-5.518 0-9.99 4.468-9.99 9.98v3.327c0 5.52 4.472 9.985 9.99 9.985s9.988-4.47 9.988-9.99v-3.33c0-5.51-4.472-9.98-9.99-9.98zm0-36.612c-5.518 0-9.99 4.47-9.99 9.98v3.33c0 5.517 4.472 9.985 9.99 9.985s9.988-4.47 9.988-9.985v-3.33c0-5.51-4.472-9.98-9.99-9.98zm41.468 0c-5.523 0-9.99 4.47-9.99 9.98v3.33c0 5.517 4.467 9.985 9.99 9.985 5.517 0 9.982-4.47 9.982-9.985v-3.33c0-5.51-4.464-9.98-9.982-9.98zm0 36.612c-5.523 0-9.99 4.468-9.99 9.98v3.327c0 5.52 4.467 9.985 9.99 9.985 5.517 0 9.982-4.47 9.982-9.99v-3.33c0-5.51-4.464-9.98-9.982-9.98zm0-73.227c-5.523 0-9.99 4.475-9.99 9.986v3.327c0 5.52 4.467 9.99 9.99 9.99 5.517 0 9.982-4.47 9.982-9.99v-3.327c0-5.51-4.464-9.986-9.982-9.986zM59.293 142.682h166.41c3.675 0 6.662-2.978 6.662-6.658 0-45.948-34.697-83.895-79.253-89.17 2.932-15.287 16.365-26.88 32.496-26.88h25.327c5.51 0 9.99-4.475 9.99-9.985 0-5.52-4.48-9.99-9.99-9.99h-25.327c-27.115 0-49.492 20.43-52.67 46.69-45.076 4.79-80.306 43.02-80.306 89.33 0 3.68 2.988 6.656 6.66 6.656z"/>
</svg>
