<?xml version="1.0" encoding="iso-8859-1"?>
<!-- Generator: Adobe Illustrator 19.0.0, SVG Export Plug-In . SVG Version: 6.00 Build 0)  -->
<svg version="1.1" id="Capa_1" xmlns="http://www.w3.org/2000/svg" xmlns:xlink="http://www.w3.org/1999/xlink" x="0px" y="0px"
	 viewBox="0 0 490 490" style="enable-background:new 0 0 490 490;" xml:space="preserve">
<g>
	<g>
		<path d="M123.515,236.042c-28.835,0-52.304-23.88-52.304-53.239c0-29.351,23.469-53.231,52.304-53.231s52.289,23.88,52.289,53.231
			C175.804,212.162,152.35,236.042,123.515,236.042z M123.515,160.187c-11.959,0-21.69,10.142-21.69,22.617
			c0,12.474,9.731,22.624,21.69,22.624s21.675-10.15,21.675-22.624C145.19,170.329,135.473,160.187,123.515,160.187z"/>
	</g>
	<g>
		<path d="M245,236.042c-28.835,0-52.289-23.88-52.289-53.239c0-29.351,23.454-53.231,52.289-53.231s52.289,23.88,52.289,53.231
			C297.289,212.162,273.835,236.042,245,236.042z M245,160.187c-11.959,0-21.675,10.142-21.675,22.617
			c0,12.474,9.716,22.624,21.675,22.624c11.959,0,21.675-10.15,21.675-22.624C266.675,170.329,256.959,160.187,245,160.187z"/>
	</g>
	<g>
		<path d="M366.485,236.042c-28.835,0-52.289-23.88-52.289-53.239c0-29.351,23.454-53.231,52.289-53.231
			c28.835,0,52.304,23.88,52.304,53.231C418.79,212.162,395.321,236.042,366.485,236.042z M366.485,160.187
			c-11.959,0-21.675,10.142-21.675,22.617c0,12.474,9.716,22.624,21.675,22.624c11.959,0,21.69-10.15,21.69-22.624
			C388.176,170.329,378.444,160.187,366.485,160.187z"/>
	</g>
	<g>
		<path d="M383.945,490L230.694,364.254H50.716c-27.924,0-50.63-23.11-50.63-51.527V51.535C0.086,23.118,22.792,0,50.716,0h388.568
			c27.924,0,50.63,23.118,50.63,51.535v261.193c0,28.417-22.707,51.527-50.63,51.527h-55.339V490z M50.716,30.614
			c-11.032,0-20.016,9.388-20.016,20.92v261.193c0,11.525,8.984,20.913,20.016,20.913h190.921l111.694,91.633V333.64h85.953
			c11.032,0,20.016-9.388,20.016-20.913V51.535c0-11.533-8.984-20.92-20.016-20.92H50.716z"/>
	</g>
</g>
<g>
</g>
<g>
</g>
<g>
</g>
<g>
</g>
<g>
</g>
<g>
</g>
<g>
</g>
<g>
</g>
<g>
</g>
<g>
</g>
<g>
</g>
<g>
</g>
<g>
</g>
<g>
</g>
<g>
</g>
</svg>
