<svg xmlns="http://www.w3.org/2000/svg" viewBox="0 0 490 490">
  <path d="M123.515 236.042c-28.835 0-52.304-23.88-52.304-53.24 0-29.35 23.47-53.23 52.307-53.23s52.29 23.88 52.29 53.23c0 29.36-23.455 53.24-52.29 53.24zm0-75.855c-11.96 0-21.69 10.142-21.69 22.617 0 12.474 9.73 22.624 21.69 22.624s21.675-10.15 21.675-22.624c0-12.475-9.717-22.617-21.675-22.617zM245 236.042c-28.835 0-52.29-23.88-52.29-53.24 0-29.35 23.455-53.23 52.29-53.23s52.29 23.88 52.29 53.23c0 29.36-23.455 53.24-52.29 53.24zm0-75.855c-11.96 0-21.675 10.142-21.675 22.617 0 12.474 9.716 22.624 21.675 22.624 11.96 0 21.675-10.15 21.675-22.624 0-12.475-9.716-22.617-21.675-22.617zm121.485 75.855c-28.835 0-52.29-23.88-52.29-53.24 0-29.35 23.455-53.23 52.29-53.23s52.304 23.88 52.304 53.23c0 29.36-23.47 53.24-52.307 53.24zm0-75.855c-11.96 0-21.675 10.142-21.675 22.617 0 12.474 9.716 22.624 21.675 22.624 11.96 0 21.69-10.15 21.69-22.624 0-12.475-9.73-22.617-21.69-22.617z"/>
  <path d="M383.945 490l-153.25-125.746H50.715c-27.924 0-50.63-23.11-50.63-51.527V51.535C.085 23.118 22.792 0 50.715 0h388.57c27.923 0 50.63 23.118 50.63 51.535v261.193c0 28.417-22.708 51.527-50.63 51.527h-55.34V490zM50.715 30.614c-11.03 0-20.015 9.388-20.015 20.92v261.193c0 11.525 8.984 20.913 20.016 20.913h190.92l111.695 91.633V333.64h85.956c11.032 0 20.016-9.388 20.016-20.913V51.535c0-11.533-8.983-20.92-20.015-20.92H50.715z"/>
</svg>
