<svg xmlns="http://www.w3.org/2000/svg" viewBox="0 0 60 60">
  <path d="M31.634 37.99c1.04-.082 1.99-.613 2.606-1.46l9.363-12.944c.287-.397.244-.945-.104-1.293-.35-.347-.9-.39-1.3-.104l-12.94 9.36c-.85.61-1.38 1.56-1.46 2.6s.29 2.06 1.03 2.79c.67.67 1.572 1.042 2.513 1.042.093 0 .186-.004.28-.01zm-1.836-3.675c.035-.457.27-.874.637-1.142l7.897-5.713-5.71 7.895c-.27.37-.688.604-1.145.64-.455.03-.902-.128-1.227-.453-.322-.323-.488-.77-.452-1.227z"/>
  <path d="M54.034 19.564c-.01-.02-.01-.043-.02-.064-.013-.02-.032-.03-.045-.05-1.02-1.734-2.21-3.347-3.57-4.81l2.15-2.146 1.41 1.414 4.24-4.243-4.24-4.242-4.25 4.242 1.415 1.415-2.148 2.147c-1.465-1.358-3.077-2.555-4.81-3.566-.02-.01-.03-.03-.05-.04-.02-.01-.045-.01-.066-.02-3.09-1.78-6.566-2.97-10.27-3.4V5h1.5c1.38 0 2.5-1.12 2.5-2.5S36.67 0 35.29 0h-9c-1.38 0-2.5 1.12-2.5 2.5S24.91 5 26.29 5h1.5v1.156c-1.08.115-2.16.29-3.224.535-.54.13-.877.66-.753 1.2.123.54.66.88 1.198.75.92-.21 1.85-.37 2.78-.47l1.08-.08c.33-.02.63-.04.93-.05V10c0 .553.447 1 1 1s1-.447 1-1V8.03c3.76.173 7.305 1.183 10.456 2.845l-.987 1.707c-.278.48-.114 1.09.364 1.366.158.09.33.134.5.134.346 0 .68-.18.867-.5l.983-1.703c3.13 1.98 5.786 4.64 7.77 7.77l-1.703.98c-.477.27-.64.88-.364 1.36.184.32.52.5.865.5.17 0 .344-.05.5-.14l1.708-.987c1.685 3.195 2.7 6.797 2.85 10.62h-1.97c-.554 0-1 .445-1 1s.446 1 1 1h1.97c-.15 3.82-1.164 7.42-2.85 10.617l-1.706-.985c-.48-.275-1.09-.113-1.37.367-.276.48-.11 1.09.366 1.365l1.704.98c-1.99 3.13-4.647 5.787-7.776 7.77l-.98-1.702c-.276-.48-.89-.64-1.365-.365-.48.276-.645.888-.37 1.366l.988 1.71c-3.15 1.66-6.696 2.67-10.457 2.843V56c0-.553-.45-1-1-1s-1 .447-1 1v1.976c-1.6-.055-3.2-.255-4.776-.617-.54-.13-1.076.21-1.2.75-.123.53.214 1.07.75 1.19 1.998.46 4.037.69 6.06.69.05 0 .096-.01.145-.01.01 0 .013.003.02.003.007 0 .014-.006.022-.006 4.807-.034 9.317-1.33 13.22-3.574.03-.01.06-.02.09-.04.02-.01.03-.03.05-.04 4.04-2.355 7.416-5.726 9.775-9.762.02-.026.043-.047.06-.077.012-.02.01-.044.02-.065 2.288-3.957 3.6-8.543 3.6-13.433s-1.315-9.47-3.597-13.43zm-.07-11.313l1.416 1.42-1.418 1.42-1.415-1.41 1.413-1.42zm-24.17-2.23V3h-3.5c-.276 0-.5-.225-.5-.5s.224-.5.5-.5h9c.274 0 .5.225.5.5s-.226.5-.5.5h-3.5v3.02c-.35-.013-.68-.02-1-.02l-.09.002L30.63 6c-.164 0-.328.01-.492.014-.116.003-.225.002-.345.007zm-8 7.98h-5c-.554 0-1 .45-1 1s.446 1 1 1h5c.552 0 1-.44 1-1s-.448-1-1-1zm0 7h-10c-.554 0-1 .45-1 1s.446 1 1 1h10c.552 0 1-.44 1-1s-.448-1-1-1zm0 7h-15c-.554 0-1 .45-1 1s.446 1 1 1h15c.552 0 1-.44 1-1s-.448-1-1-1zm0 7h-19c-.554 0-1 .45-1 1s.446 1 1 1h19c.552 0 1-.44 1-1s-.448-1-1-1zm0 7h-13c-.554 0-1 .45-1 1s.446 1 1 1h13c.552 0 1-.44 1-1s-.448-1-1-1zm0 7h-7c-.554 0-1 .45-1 1s.446 1 1 1h7c.552 0 1-.44 1-1s-.448-1-1-1z"/>
</svg>
