<svg xmlns="http://www.w3.org/2000/svg" viewBox="0 0 512 512">
  <path d="M489.267 293.643c-10.33-9.754-20.803-13.858-22.836-14.596l-34.51-14.38-24.17-15.953V240.6c18.06-9.443 31.2-27.017 34.54-47.838 15.17-2.017 26.91-15.03 26.91-30.74 0-8.063-3.09-15.415-8.15-20.937v-29.738c0-47.85-38.93-86.777-86.77-86.777h-6.56c-39.39 0-73.76 26.454-83.85 64.416-7.57-2.05-15.53-3.165-23.75-3.165h-6.91c-8.65 0-17.01 1.24-24.95 3.51-9.97-38.15-44.43-64.76-83.95-64.76h-6.55c-47.85 0-86.78 38.93-86.78 86.78v29.74c-5.06 5.52-8.15 12.88-8.15 20.94 0 15.71 11.74 28.73 26.91 30.74 3.34 20.82 16.49 38.4 34.54 47.84v8.12L80.1 264.68l-34.52 14.38c-2.032.736-12.505 4.84-22.835 14.595C12.365 303.435 0 321.045 0 349.315v49.13c0 4.467 3.62 8.098 8.084 8.098H109.6c-1.507 6.28-2.4 13.265-2.4 21.023v51.772c0 4.466 3.62 8.097 8.083 8.097h189.94c4.466 0 8.084-3.617 8.084-8.083s-3.618-8.082-8.084-8.082h-17.31l-9.76-60.512 3.814-10.162 5.767 4.246c1.402 1.032 3.084 1.573 4.79 1.573.648 0 1.297-.078 1.937-.235 2.33-.58 4.29-2.16 5.34-4.32l21.96-45.13 29.3 12.21c.18.07.36.14.54.2.37.122 37.06 12.98 37.06 58.42v43.7H355.1v-46.05c0-4.466-3.618-8.084-8.084-8.084-4.466 0-8.084 3.618-8.084 8.084v46.057h-8.55c-4.468 0-8.086 3.618-8.086 8.084 0 4.47 3.618 8.09 8.084 8.09h66.34c4.467 0 8.085-3.72 8.085-8.18v-51.69c0-7.75-.894-14.74-2.4-21.02H503.92c4.465 0 8.083-3.71 8.083-8.18v-49.05c-.003-28.27-12.363-45.88-22.735-55.67zM426.954 182.32c0 27.332-22.236 49.567-49.566 49.567H364.88c-1.746 0-3.488-.106-5.218-.286.02-.45.034-.92.034-1.38 0-8.44-3.264-16.13-8.592-21.89v-31.51c0-14.38-3.367-27.99-9.335-40.09 17.73-4.29 38.53-12.49 54.63-28.23 5 10.67 14.33 24.57 30.55 30.72v43.11zm-35.38 64.177v16.524l-20.772 21.57-20.123-19.6c0-.09.01-.17.01-.26v-12.18c1.54-1.61 2.93-3.37 4.11-5.27 3.32.51 6.69.8 10.07.8h12.5c4.87 0 9.61-.54 14.18-1.56zm-48.046-16.28c0 4.08-1.54 7.795-4.05 10.635-1.506.633-2.776 1.712-3.655 3.068-1.12.688-2.32 1.258-3.6 1.656V214.86c6.543 2.04 11.305 8.153 11.305 15.357zm109.5-68.196c0 6.46-4.147 11.95-9.906 13.99v-27.97c5.76 2.05 9.905 7.54 9.905 13.99zM299.312 93.73c8.01-31.2 36.134-52.99 68.393-52.99h6.558c38.934 0 70.61 31.676 70.61 70.61v20.39c-.653-.143-1.308-.274-1.975-.376-.7-2.946-3.013-5.322-6.07-6.017-22.63-5.148-29.59-34.03-29.654-34.3-.7-3.1-3.153-5.5-6.265-6.135-3.11-.635-6.31.61-8.17 3.183-15.16 20.957-40.43 30.098-59.93 34.083-8.83-11.71-20.41-21.227-33.78-27.58.11-.284.2-.57.28-.866zm-46.117 8.26h6.907v.002c41.263 0 74.834 33.57 74.834 74.832v22.033c-.94-.224-1.896-.41-2.867-.55-.02-.107-.05-.21-.08-.314-.03-.135-.07-.27-.11-.404-.04-.14-.09-.26-.13-.39-.04-.12-.08-.23-.13-.34-.06-.14-.12-.27-.18-.4-.05-.11-.1-.21-.15-.31-.07-.13-.14-.26-.22-.38l-.18-.3c-.08-.12-.16-.23-.24-.34-.08-.11-.15-.21-.23-.31-.08-.1-.16-.19-.24-.29-.1-.1-.19-.21-.28-.31-.08-.08-.16-.16-.25-.24-.11-.1-.22-.21-.33-.3l-.26-.21c-.12-.1-.24-.19-.36-.27-.1-.07-.2-.13-.3-.19-.12-.08-.24-.15-.367-.22-.12-.07-.24-.13-.36-.19-.11-.06-.22-.11-.34-.16-.15-.07-.3-.12-.45-.18-.096-.04-.19-.08-.287-.11-.17-.06-.35-.1-.525-.15-.07-.017-.136-.04-.205-.057-24.117-5.486-31.505-36.18-31.57-36.466-.7-3.098-3.155-5.498-6.266-6.134-3.11-.633-6.31.61-8.17 3.187-28.093 38.84-89.49 39.22-90.42 39.22h-.04c-.273 0-.55.018-.82.04l-.19.03c-.205.03-.41.05-.61.098-.075.018-.15.04-.22.06-.187.04-.374.083-.554.14-.093.03-.185.07-.28.1-.15.054-.305.105-.454.167-.12.05-.23.11-.35.17-.12.06-.24.11-.35.17-.12.06-.23.14-.345.21-.11.06-.22.12-.32.19-.11.08-.22.16-.33.245-.092.07-.2.14-.29.22-.103.08-.2.18-.3.263-.09.09-.19.17-.274.25-.09.097-.177.196-.26.29-.09.097-.18.19-.26.29-.08.1-.157.202-.23.303-.08.105-.166.206-.24.316-.07.104-.13.214-.195.32-.07.116-.14.23-.208.345-.06.11-.11.23-.166.343-.06.12-.12.24-.175.36-.05.12-.087.24-.13.36-.05.13-.1.25-.14.385-.04.122-.068.25-.1.374-.034.13-.074.26-.1.394l-.016.07c-1.073.156-2.14.364-3.18.624v-22.1c0-41.26 33.57-74.83 74.837-74.83zm3.27 257.99l-21.656-21.093c.01-.152.02-.3.02-.454v-19.75c4.95 1.137 10.09 1.757 15.38 1.757h13.18c5.13 0 10.12-.582 14.94-1.65.14-.006.29-.016.44-.023v18.05l-22.32 23.16zm11.97 30.654l-4.208 11.207h-15.064l-4.755-11.35 11.914-8.77 12.11 8.92zm-120.59-66.15h-13.738l-3.783-10.074 11-8.093 10.802 7.95-4.282 10.22zm1.067 32.126c-4.666 2.37-11.3 6.388-17.897 12.617-.092.086-.183.177-.275.264l4.653-28.83h10.946l2.57 15.96zm-7.715-72.02l-20.773-21.563V246.5c4.572 1.01 9.316 1.56 14.188 1.56h12.508c3.878 0 7.746-.343 11.543-1.014.797 1.297 1.68 2.533 2.645 3.7v13.972c0 .09.01.176.013.265l-20.12 19.602zm33.835-10.39c1.877-1.826 2.666-4.343 2.377-6.757l7.1 4.685c.77 2.466 1.69 4.866 2.72 7.204l-14.58 29.97-19.17-14.11 21.54-20.99zm-4.952-43.977c0-7.206 4.764-13.32 11.306-15.36v30.718c-6.542-2.04-11.305-8.15-11.305-15.35zm-4.555 93.904l5.363 3.946c1.402 1.032 3.085 1.573 4.792 1.573.646 0 1.296-.078 1.935-.235 2.33-.57 4.285-2.15 5.333-4.31l14.36-29.52c5.875 7.06 13.137 12.92 21.356 17.17v8.42l-25.916 17.11c-.35.1-.7.21-1.044.35l-27.47 11.45-2.66-16.49 3.95-9.43zm53.382 16.25c-.665 2.694.068 5.658 2.2 7.734l23.07 22.48-21.03 15.48-17.855-36.7 13.615-8.98zm44.49-36.103h-13.18c-29.036 0-52.66-23.623-52.66-52.66v-44c17.34-1.26 58.366-7.11 86.01-34.523 5.193 11.3 15.083 26.31 32.492 32.79v45.74h-.01c0 29.04-23.63 52.66-52.66 52.66zM68.877 176.008c-5.76-2.044-9.904-7.533-9.904-13.987s4.143-11.94 9.904-13.98v27.98zm8.3-50.87h-.037c-.03 0-.06.004-.09.004l-.088-.002c-3.822 0-7.016 2.655-7.86 6.22-.666.103-1.323.234-1.975.378v-20.39c0-38.935 31.675-70.61 70.61-70.61h6.557c32.26 0 60.384 21.79 68.393 52.99.125.484.296.943.5 1.383-10.647 5.24-20.123 12.49-27.936 21.26-9.31-9.71-12.56-23.25-12.59-23.38-.7-3.1-3.15-5.5-6.26-6.13-3.11-.63-6.31.61-8.17 3.18-25.14 34.77-80.24 35.11-81.04 35.11zm7.87 57.183v-41.36c15.903-1.21 52.026-6.61 76.87-30.62 2.908 6.08 7.275 13.18 13.594 19.14-8.44 13.8-13.31 30.02-13.31 47.35v31.85c-5.14 5.72-8.28 13.28-8.28 21.55 0 .4.02.79.03 1.19-2.25.31-4.53.49-6.82.49h-12.51c-27.33 0-49.56-22.23-49.56-49.56zm19.393 85.65c.303 1.43.988 2.8 2.077 3.93l22.527 23.39-19.054 14.02-16.575-34.06 11.023-7.27zm6.553 122.41H63.34v-43.3c0-4.46-3.62-8.08-8.083-8.08s-8.084 3.62-8.084 8.09v43.3H16.168v-41.06c0-42.46 33.5-54.58 34.887-55.06.18-.06.36-.13.535-.2l27.44-11.43 20.666 42.47c1.05 2.16 3.004 3.74 5.333 4.32.64.16 1.28.24 1.93.24 1.71 0 3.39-.54 4.79-1.58l5.03-3.71 3.39 9.03-9.19 56.97zm114.704 80.89h-52.624v-46.06c0-4.46-3.62-8.08-8.084-8.08-4.47 0-8.09 3.62-8.09 8.09v46.06h-33.54v-43.7c0-45.06 35.57-57.91 37.05-58.42.18-.06.36-.13.53-.2l29.83-12.43 22.06 45.36c1.05 2.16 3 3.74 5.33 4.31.64.16 1.29.24 1.93.24 1.71 0 3.39-.54 4.79-1.575l6.1-4.49 4.42 10.567-9.74 60.35zm16.38 0l8.592-53.26h12.27l8.59 53.26h-29.46zm47.423-85.21l-6.37-4.69c-.017-.01-.036-.02-.054-.04l-14.47-10.65 24.08-24.99c1.25-1.3 1.97-2.9 2.185-4.56l12.49 8.24-17.85 36.71zm58.267-36l-27.122-11.3-25.67-16.94-.026-.01v-9.05c7.74-4.01 14.63-9.45 20.32-15.98l13.78 28.33c1.05 2.16 3 3.74 5.33 4.32.64.16 1.29.24 1.93.24 1.7 0 3.39-.54 4.79-1.57l5.36-3.94 3.95 9.434-2.67 16.496zm-8.422-40.76L325.6 281.04c1.556-3.276 2.85-6.697 3.88-10.23l5.11-3.374c-.29 2.414.5 4.93 2.377 6.758l21.548 20.992-19.17 14.108zm41.64 59.93c-6.598-6.23-13.232-10.25-17.898-12.62l2.575-15.95h10.946l4.65 28.84c-.09-.09-.183-.18-.274-.26zm-3.093-44.74h-13.736l-4.282-10.22 10.803-7.95 11 8.1-3.785 10.08zm5.062-29.21l22.526-23.38c1.09-1.13 1.78-2.49 2.08-3.92l11.02 7.28-16.57 34.06-19.05-14.02zm81.873 95.1v-43.3c0-4.46-3.62-8.08-8.084-8.08-4.466 0-8.084 3.62-8.084 8.09v43.29H401l-9.19-56.97 3.39-9.03 5.037 3.71c1.402 1.04 3.084 1.58 4.79 1.58.65 0 1.297-.08 1.937-.23 2.328-.57 4.284-2.15 5.332-4.31l20.664-42.47 27.44 11.434c.177.07.356.14.536.2.35.12 34.89 12.22 34.89 55.06v41.06h-31.004z"/>
</svg>
