<svg xmlns="http://www.w3.org/2000/svg" viewBox="0 0 512.257 512.257">
  <path d="M483.06 386.817c-10.64-7.487-22.918-11.51-35.32-12.165-46.744-30.61-77.364-53.585-95.24-71.462l-54.916-54.915 33.324-37.302c6.316 3.565 13.1 5.914 19.884 6.883 5.12.853 8.533.853 11.947.853 6.82 0 8.53 0 15.36 5.97-3.42 2.56-5.12 6.82-5.12 11.09s1.7 9.38 5.12 12.8l29.86 29.86c4.26 5.12 11.09 7.68 17.92 7.68s13.65-2.56 17.92-8.54L504.39 217c5.12-4.267 7.68-11.093 7.68-17.92s-2.56-12.8-7.68-17.92l-29.866-29.867c-3.413-3.413-7.68-5.12-11.947-5.12s-8.54 2.56-11.95 5.12c-6.83-5.973-6.83-7.68-6.83-14.507 0-3.413 0-7.68-1.708-12.8-1.71-11.947-7.68-23.893-17.07-33.28l-30.72-30.72c-17.92-17.92-26.46-26.453-49.5-36.693-49.5-23.038-99.84-18.77-173.23 14.51-4.27 1.706-5.97 5.12-5.12 9.386s4.27 6.82 8.53 6.82h11.09c37.54 0 57.17 0 91.3 34.13 14.94 14.94 15.37 37.86 1.98 54.72-1.81.27-3.18 1.08-4.55 2.45l-37.9 42.31-28.66-28.66c-31.497-31.5-53.647-61.29-70.697-94.47-.898-16.79-7.635-32.5-19.76-44.63C103.31 5.37 82.83-1.46 62.35.25c-2.56.854-5.12 2.56-5.97 4.268-1.71 2.56-1.71 5.974 0 8.534L80.27 55.72c-5.11 11.1-17.06 17.926-29.004 17.07l-24.74-40.96c-.854-2.56-4.268-4.267-6.828-4.267-2.56-.853-5.12.853-6.827 3.413-20.48 30.72-12.8 71.68 17.92 93.013 10.59 7.56 22.51 11.76 34.59 12.62.14.05.26.12.4.17 33.28 17.06 63.15 39.25 94.72 70.82l31.21 30.5-181.4 202.46C3.49 447.4.07 456.79.07 466.17c0 9.39 3.413 17.92 10.24 24.75l11.95 11.95c6.826 5.975 15.36 9.39 23.892 9.39s17.92-3.414 24.747-10.24l181.18-202.815 52.62 52.626c17.9 17.91 40.91 49.44 71.59 95.45 1.1 16.42 7.82 31.75 19.71 43.65 12.8 12.8 29.86 19.62 47.78 19.62h6.82c2.56 0 5.12-1.71 6.83-4.27s1.7-5.97 0-8.53l-24.75-41.81c5.97-11.09 17.06-17.92 29.86-17.06l23.89 40.96c.85 2.56 4.27 4.27 6.83 4.27 3.41-.85 5.97-1.71 7.68-4.27 20.48-30.72 11.94-71.68-17.92-93.01zM288.5 74.497c-27.31-26.453-47.79-34.987-70.83-37.547 48.64-15.36 84.48-14.507 120.32 1.707 20.48 8.533 27.307 15.36 45.227 33.28l30.72 30.72c6.826 6.827 11.092 15.36 11.946 23.893.853 4.267.853 7.68.853 10.24 0 9.387.852 16.213 11.092 26.453 3.413 3.413 8.533 5.12 12.8 5.12 5.12 0 9.387-1.707 11.947-5.12l29.866 29.867c1.71 1.707 2.56 3.413 2.56 5.973s-.85 4.267-2.56 5.973l-60.58 60.587c-3.41 3.413-8.53 3.413-11.95 0l-29.86-29.867c3.42-2.56 5.12-6.827 4.27-11.947 0-4.27-1.71-9.39-5.12-12.8-10.24-10.24-17.07-11.1-26.45-11.1-2.56 0-5.97 0-10.24-.86-9.39-.86-17.07-5.12-23.89-11.95l-36.69-36.7c18.77-23.04 17.07-55.47-3.41-75.95zM20.55 54.017l17.92 30.72c1.707 2.56 4.267 4.267 6.827 4.267h4.266c19.627.853 37.547-9.387 46.08-26.453l1.707-4.26c1.707-2.56 1.707-5.12 0-7.68L78.58 18.18c10.24 1.707 19.626 6.827 27.306 14.507 8.798 9.53 14.43 21.585 14.764 34.533-.165.656-.258 1.363-.258 2.16 0 3.952-.477 7.807-1.36 11.523-3.22 12.36-10.938 23.13-21.68 30.294-17.067 11.093-40.107 11.093-57.173-.853C22.26 97.54 14.58 74.5 20.55 54.02zM172.445 195.67c-25.6-26.453-51.2-46.933-78.507-63.147 4.267-1.707 9.387-4.267 13.653-6.827 12.8-8.533 21.34-19.627 26.46-33.28 16.22 27.307 36.7 52.907 62.3 78.507l29.31 29.31-22.98 25.655-30.21-30.218zM58.952 489.217c-6.827 6.827-17.92 7.68-24.747.853l-11.947-11.093c-3.413-3.413-5.12-7.68-5.12-11.947 0-5.12 1.707-9.387 5.973-13.653l4.84-5.407 12.24 12.234c1.71 1.707 3.42 2.56 5.98 2.56s4.27-.853 5.98-2.56c3.42-3.413 3.42-8.533 0-11.947l-12.91-12.904 11.27-12.617 13.57 13.574c1.71 1.707 3.42 2.56 5.98 2.56s4.27-.853 5.98-2.56c3.42-3.413 3.42-8.533 0-11.947L61.78 410.12l219.49-245.573 35.84 35.84-35.216 39.4c-1.006.425-1.896 1.076-2.782 1.963l-34.133 38.4c-.98.975-1.67 2.09-2.08 3.264L58.95 489.217zm204.81-203.083l23.353-26.14 55.143 55.143c15.36 16.213 41.813 36.693 80.213 62.293-5.12 1.707-10.24 4.267-15.36 7.68-10.58 6.617-18.08 15.804-23.31 25.96-.07.145-.14.293-.22.44-.31.61-.61 1.224-.9 1.842-.42.875-.82 1.76-1.2 2.654-.26.605-.52 1.21-.77 1.82l-.1.263c-.27.66-.53 1.33-.79 2-4.84-7.11-9.51-13.82-13.99-20.14l11.44-11.44c3.42-3.42 3.42-8.54 0-11.95-3.41-3.42-8.53-3.42-11.94 0l-9.51 9.51c-3.54-4.81-6.97-9.35-10.27-13.62l7.84-7.85c3.42-3.42 3.42-8.54 0-11.95-3.41-3.42-8.53-3.42-11.94 0l-6.51 6.51c-6.27-7.56-12.05-13.99-17.372-19.32L263.8 286.1zM492.445 456.79l-17.92-30.72c-1.707-2.56-4.267-4.267-6.827-4.267h-4.267c-19.62-1.707-37.54 9.387-46.08 26.453l-1.7 4.267c-1.7 2.56-1.7 5.12 0 7.68l18.78 32.427c-10.24-1.707-19.62-6.827-27.3-14.507-8.63-9.35-14.21-21.13-14.73-33.797.15-.624.23-1.294.23-2.043 0-10.81 3.44-20.93 9.42-29.504 3.68-5.12 8.27-9.6 13.63-13.17 8.54-5.98 17.92-8.54 28.16-8.54 10.24 0 20.48 3.41 29.02 9.38 17.92 12.8 25.6 35.84 19.63 56.32z"/>
</svg>
