<svg xmlns="http://www.w3.org/2000/svg" width="497.407" height="497.407">
  <path d="M355.58 158.864h-58.21c0-11.886-9.266-22.3-23.157-28.114l35.772-55.09c.815.136 1.65.224 2.506.224 8.428 0 15.256-6.83 15.256-15.252 0-8.423-6.828-15.25-15.252-15.25s-15.25 6.827-15.25 15.25c0 3.11.937 6 2.534 8.414l-37.71 58.076c-4.247-.82-8.726-1.27-13.36-1.27s-9.113.45-13.36 1.27l-67.82-104.444c1.47-2.293 2.332-5.012 2.332-7.938 0-8.14-6.6-14.74-14.74-14.74s-14.74 6.6-14.74 14.74 6.6 14.74 14.74 14.74c.75 0 1.48-.074 2.2-.182l65.877 101.452c-13.893 5.813-23.156 16.228-23.156 28.114h-58.21c-56.217 0-101.79 45.572-101.79 101.79V372.62c0 47.42 32.43 87.267 76.32 98.574-.462 8.288-.69 26.213 5.963 26.213 5.884 0 15.63-14.023 21.27-23h210.23c5.637 8.977 15.384 23 21.27 23 6.65 0 6.423-17.925 5.962-26.213 43.893-11.31 76.32-51.153 76.32-98.574V260.653c0-56.217-45.573-101.79-101.79-101.79zm-20.762 256.08H109.332c-11.046 0-20-8.953-20-20v-156.49c0-11.045 8.954-20 20-20h225.486c11.046 0 20 8.955 20 20v156.49c0 11.047-8.954 20-20 20zm62.552-35.524c-13.07 0-23.667-10.596-23.667-23.667s10.597-23.667 23.667-23.667 23.667 10.596 23.667 23.667-10.597 23.667-23.667 23.667zm0-91.667c-13.07 0-23.667-10.596-23.667-23.667 0-13.07 10.597-23.667 23.667-23.667s23.667 10.593 23.667 23.663-10.597 23.667-23.667 23.667z"/>
</svg>
