<?xml version="1.0" encoding="utf-8"?>
<!-- Generator: Adobe Illustrator 19.0.0, SVG Export Plug-In . SVG Version: 6.00 Build 0)  -->
<svg version="1.2" baseProfile="tiny" id="Capa_1" xmlns="http://www.w3.org/2000/svg" xmlns:xlink="http://www.w3.org/1999/xlink"
	 x="0px" y="0px" viewBox="-304.5 351.5 90 90" xml:space="preserve">
<path display="none" d="M-279.7,398.2c-0.4-0.4-0.5-0.9-0.5-1.2s0.2-0.9,0.5-1.2l2.5-2.4c0.7-0.7,1.8-0.7,2.4,0l0.2,0.2l9.6,10.3
	c0.4,0.4,0.9,0.4,1.2,0l23.4-24.3h0.2l0,0c0.7-0.7,1.8-0.7,2.4,0l2.5,2.5c0.7,0.7,0.7,1.8,0,2.4l0,0l-28,29.1
	c-0.4,0.4-0.7,0.5-1.2,0.5s-0.9-0.2-1.2-0.5l-13.6-14.7C-279.4,398.8-279.7,398.2-279.7,398.2z"/>
<path d="M-278.1,399.2c-0.3-0.3-0.5-0.9-0.5-1.2s0.2-0.9,0.5-1.2l2.4-2.4c0.7-0.7,1.7-0.7,2.4,0l0.2,0.2l9.4,10
	c0.3,0.3,0.9,0.3,1.2,0l22.8-23.6h0.2l0,0c0.7-0.7,1.7-0.7,2.4,0l2.4,2.4c0.7,0.7,0.7,1.7,0,2.4l0,0l-27.2,28.2
	c-0.3,0.3-0.7,0.5-1.2,0.5c-0.5,0-0.9-0.2-1.2-0.5l-13.3-14.3C-277.8,399.7-278.1,399.2-278.1,399.2z"/>
<circle fill="none" stroke="#2ec28c" stroke-width="4" stroke-miterlimit="10" cx="-258.4" cy="397.4" r="41"/>
</svg>
