<svg xmlns="http://www.w3.org/2000/svg" width="612" height="612">
  <path d="M27.818 83.455H584.18v27.818H27.82zm27.818-55.637h500.727v27.818H55.636zM414.74 355.1c-2.392-3.756-7.204-4.647-10.792-2.114l-76.862 54.05c-1.78 1.252-4.2.752-5.313-1.168l-90.576-156.45c-2.17-3.782-5.647-3.81-7.678.084L55.58 517.696c-2.03 3.923-.166 7.065 4.146 7.065h491.158c4.173 0 5.87-3.002 3.505-6.702L414.74 355.1z"/>
  <circle cx="486.818" cy="236.454" r="41.727"/>
  <path d="M0 142.68v437.914c0 1.975 1.752 3.588 3.922 3.588h604.183c2.142 0 3.895-1.613 3.895-3.588V142.68c0-1.976-1.753-3.59-3.895-3.59H3.922c-2.17 0-3.922 1.614-3.922 3.59zm27.818 24.23H584.18v389.453H27.82V166.91z"/>
</svg>
