<svg xmlns="http://www.w3.org/2000/svg" viewBox="0 0 489.49 489.49">
  <path d="M230.232 299.526v16.14h28.823v-16.093c-4.723.9-9.51 1.392-14.325 1.392-4.88 0-9.713-.517-14.498-1.44z"/>
  <path d="M379.666 276.48l-59.085-17.617c-3.81 4.78-7.8 9.133-11.93 13.153l66.45 19.814c6.48 1.932 10.84 7.774 10.84 14.538v25.915c0 73.168-55.96 133.497-127.32 140.49l16.66-39.335-16.01-107.1h-29.03l-16.01 107.1 16.66 39.334c-71.36-6.992-127.32-67.32-127.32-140.49V306.37c0-6.763 4.36-12.605 10.85-14.537l66.42-19.806c-4.13-4.02-8.11-8.376-11.95-13.153l-59.05 17.61c-13.23 3.94-22.282 16.094-22.282 29.887v25.92c0 86.82 70.38 157.21 157.206 157.21 86.83 0 157.205-70.38 157.205-157.21v-25.92c.002-13.79-9.053-25.94-22.284-29.88z"/>
  <path d="M159.823 213.447c16.47 35.33 46.762 71.502 84.907 71.502 38.112 0 68.405-36.12 84.875-71.43 13.06-2.56 25.444-14.71 31.232-31.31 7.146-20.62 2.19-40.79-11.088-49 .01-.34.12-.66.07-1-.22-1.74-1.14-3.15-2.46-4.08 4-6.28 7.02-16.19 6.79-31.66-.1-5.69-.6-12.08-1.69-19.39C343.7 18.83 249.71-27 208.32 18.37c0 0-31.7-6.34-54.724 26.19-9.273 13.1-22.598 39.327-21.44 61.34.453 8.65 3.08 16.664 9.164 22.95-.844.91-1.502 2.02-1.673 3.356-.042.35.067.67.08 1.01-6.08 3.79-10.724 10.14-12.9 18.375-2.454 9.33-1.814 20.21 1.815 30.62 5.724 16.44 17.907 28.52 31.17 31.22zM214.218 77.11s84.86 57.39 93.54 21.356c0 0 15.246 11.08 21.097 33.5-6.21 3.51-11.184 8.164-14.858 12.355-5.473-10.25-16.17-17.33-28.588-17.33-12.22 0-22.76 6.85-28.33 16.84-7.9-2.89-16.78-2.89-24.68 0-5.57-9.98-16.11-16.83-28.32-16.83-12.42 0-23.12 7.08-28.59 17.34-3.62-4.1-8.43-8.68-14.48-12.17 4.89-14.62 19.51-47.79 53.2-55.03zm54.83 74.217c-.484-.477-1.046-.813-1.562-1.26 3.456-6.49 10.072-11.072 17.923-11.072 11.3 0 20.51 9.204 20.51 20.52 0 11.315-9.22 20.52-20.52 20.52-10.65 0-19.15-8.26-20.15-18.652 1.36-.117 2.72-.524 3.77-1.563 2.34-2.346 2.36-6.147.01-8.493zm-48.59 8.493c1.048 1.04 2.408 1.446 3.77 1.563-.986 10.392-9.494 18.65-20.145 18.65-11.308 0-20.52-9.203-20.52-20.52 0-11.314 9.212-20.518 20.52-20.518 7.85 0 14.467 4.583 17.923 11.073-.517.446-1.08.782-1.564 1.26-2.346 2.345-2.332 6.146.015 8.492zm-48.843-.892c-.016.203-.063.383-.063.586 0 17.938 14.593 32.53 32.53 32.53 17.938 0 32.53-14.59 32.53-32.53 0-1.5-.25-2.94-.44-4.386 5.443-2.167 11.698-2.167 17.143 0-.188 1.446-.44 2.886-.44 4.386 0 17.938 14.594 32.53 32.532 32.53 17.938 0 32.53-14.59 32.53-32.53 0-.203-.048-.383-.064-.586 1.784-2.753 7.32-10.455 15.25-15.507 1.234 1.14 2.8 1.95 4.582 2.12.484.05 1.47.15 1.985.32 7.085 2.48 11.31 15.86 6.022 31.1-4.77 13.67-14.467 21.05-21.35 21.05h-.156c-3.174 0-6.067 1.89-7.334 4.81-13.935 31.97-40.208 66.13-72.144 66.13-31.936 0-58.21-34.15-72.145-66.12-1.267-2.92-4.49-4.81-7.68-4.81-6.694 0-16.375-7.37-21.13-21.04-2.548-7.33-3.08-15.08-1.454-21.26.79-2.98 2.8-8.22 7.46-9.83.5-.17 1.48-.27 1.97-.32 1.8-.17 3.36-.982 4.6-2.132 7.94 5.05 13.46 12.77 15.26 15.524z"/>
</svg>
