<svg xmlns="http://www.w3.org/2000/svg" viewBox="0 0 612 612">
  <path d="M612 306.036C612 137.406 474.595 0 305.964 0S0 137.405 0 306.036c0 92.88 42.14 176.437 107.698 232.6.795.794 1.59 1.59 3.108 2.312C163.86 585.473 231.804 612 306.76 612c73.364 0 141.308-26.527 194.362-69.462 3.108-.795 5.493-3.108 7.01-5.493C571.452 480.088 612 398.122 612 306.035zm-583.883 0c0-153.018 124.9-277.92 277.92-277.92s277.918 124.902 277.918 277.92c0 74.955-29.635 142.826-78.063 192.845-7.806-36.71-31.225-99.16-103.072-139.71 16.408-20.31 25.732-46.84 25.732-74.95 0-67.15-54.644-121.79-121.793-121.79s-121.8 54.64-121.8 121.79c0 28.118 10.12 53.85 25.73 74.956-72.5 40.55-95.92 103-102.93 139.718C58.53 449.67 28.1 381 28.1 306.05zM212.36 284.93c0-51.536 42.14-93.676 93.676-93.676s93.676 42.14 93.676 93.676-42.14 93.676-93.676 93.676-93.676-42.14-93.676-93.676zm-79.653 238.093c1.59-22.624 14.022-99.17 98.374-142.104 21.11 16.4 46.84 25.73 74.96 25.73 28.12 0 54.65-10.12 75.75-26.53 83.56 42.93 96.79 117.89 99.17 142.1-47.63 38.23-108.49 61.65-174.05 61.65-66.42.07-126.56-22.55-174.19-60.86z"/>
</svg>
