<svg xmlns="http://www.w3.org/2000/svg" viewBox="0 0 511.999 511.999">
  <path d="M500.87 189.217h-44.522c-.037 0-.072.006-.11.006-.125 0-.25.013-.375.02-.283.01-.564.028-.84.06-.127.015-.25.04-.377.058-.282.047-.56.098-.835.16l-.16.03-75.212 18.806V178.09c0-6.147-4.984-11.13-11.13-11.13h-33.39V144.7h31.13c4.596 12.953 16.967 22.26 31.478 22.26h37.565c18.41 0 33.39-14.98 33.39-33.39 0-18.414-14.98-33.393-33.39-33.393h-37.565c-14.51 0-26.882 9.306-31.477 22.26H332.52c-3.97-12.876-15.98-22.26-30.14-22.26H98.317c-17.39 0-31.536 14.147-31.536 31.536v35.248H11.13C4.983 166.96 0 171.946 0 178.09V400.7c0 6.145 4.983 11.13 11.13 11.13h356.174c6.146 0 11.13-4.985 11.13-11.13v-30.27l75.213 18.805c.05.013.104.017.154.03.32.072.64.13.966.177.105.016.21.036.314.048.416.047.84.078 1.27.078h44.52c6.146 0 11.13-4.984 11.13-11.13v-178.09c0-6.147-4.983-11.13-11.13-11.13zm-104.348-66.783h37.565c6.137 0 11.13 4.993 11.13 11.13 0 6.137-4.993 11.13-11.13 11.13h-37.565c-6.137 0-11.13-4.993-11.13-11.13 0-6.137 4.992-11.13 11.13-11.13zm-352 267.13h-22.26V189.218h22.26v200.348zM89.044 131.71c0-5.115 4.16-9.276 9.275-9.276h204.054c5.114 0 9.275 4.16 9.275 9.275v35.243H89.044V131.71zm267.13 90.898v166.955H66.784v-22.26h55.65c6.148 0 11.13-4.984 11.13-11.13 0-6.146-4.982-11.13-11.13-11.13h-55.65V189.217h289.39v33.39zm89.043 141.572l-66.783-16.696V231.3l66.783-16.697V364.18zm44.522 3.124h-22.265V211.478h22.26v155.826z"/>
  <path d="M159.396 345.043h-.136c-6.147 0-11.13 4.984-11.13 11.13 0 6.146 4.983 11.13 11.13 11.13h.136c6.147 0 11.13-4.984 11.13-11.13 0-6.146-4.984-11.13-11.13-11.13z"/>
</svg>
