<svg xmlns="http://www.w3.org/2000/svg" viewBox="0 0 512 512">
  <path d="M357.006 101.006H60.41c-5.633 0-10.2 4.567-10.2 10.2 0 5.63 4.568 10.198 10.2 10.198h296.596c5.632 0 10.2-4.567 10.2-10.2 0-5.63-4.568-10.198-10.2-10.198zm62.787 0h-12.845c-5.632 0-10.2 4.567-10.2 10.2 0 5.63 4.568 10.198 10.2 10.198h12.845c5.632 0 10.2-4.567 10.2-10.2 0-5.63-4.568-10.198-10.2-10.198z"/>
  <path d="M501.8 228.14h-14.32V100.112c0-20.755-16.886-37.64-37.64-37.64H49.32C22.122 62.472 0 84.595 0 111.788c0 .13.01.258.01.39-.002.065-.01.13-.01.195v277.33c0 32.987 26.838 59.825 59.826 59.825h417.452c5.632 0 10.2-4.567 10.2-10.2V359.76H501.8c5.632 0 10.2-4.565 10.2-10.197V238.34c0-5.633-4.567-10.2-10.2-10.2zM49.318 82.87H449.84c9.506 0 17.24 7.735 17.24 17.242v40.597H49.317c-15.945 0-28.92-12.978-28.92-28.92 0-15.95 12.975-28.92 28.92-28.92zM467.08 429.13H59.826c-21.74 0-39.428-17.688-39.428-39.43V151.703c8.13 5.907 18.122 9.405 28.92 9.405H467.08v67.033h-57.965c-36.288 0-65.81 29.527-65.81 65.81s29.523 65.81 65.81 65.81h57.965v69.37zm24.522-89.768h-82.487c-25.04 0-45.412-20.372-45.412-45.412s20.372-45.412 45.412-45.412h82.487v90.824z"/>
  <path d="M411.672 264.156c-16.43 0-29.793 13.366-29.793 29.794s13.36 29.794 29.79 29.794 29.792-13.365 29.792-29.794c0-16.43-13.366-29.794-29.794-29.794zm0 39.19c-5.18 0-9.395-4.215-9.395-9.396s4.214-9.396 9.395-9.396c5.18 0 9.396 4.215 9.396 9.396s-4.216 9.396-9.396 9.396z"/>
</svg>
