<svg xmlns="http://www.w3.org/2000/svg" width="420.266" height="420.266">
  <path d="M333.177 195.57c-1.143-1.713-7.094-10.323-17.843-25.835-10.756-15.515-20.37-29.886-28.84-43.114S268.56 96.46 258.09 75.81c-10.465-20.65-18.37-39.83-23.695-57.53-1.525-5.708-4.71-10.185-9.568-13.418C219.98 1.62 215.077 0 210.13 0s-9.8 1.62-14.56 4.853c-4.76 3.234-7.994 7.71-9.707 13.418-5.33 17.7-13.23 36.88-23.697 57.53-10.466 20.66-19.936 37.59-28.406 50.82-8.47 13.23-18.083 27.6-28.836 43.12-10.754 15.51-16.702 24.12-17.844 25.83-15.413 24.75-23.12 50.92-23.12 78.52 0 40.36 14.276 74.808 42.825 103.356s62.998 42.826 103.35 42.826c40.348 0 74.802-14.274 103.353-42.83 28.55-28.554 42.828-63 42.828-103.352 0-28.17-7.712-54.34-23.133-78.514zM199.424 336.467c-7.14 7.14-15.75 10.712-25.84 10.712-10.086 0-18.7-3.58-25.838-10.72-7.137-7.13-10.708-15.75-10.708-25.84 0-6.855 1.906-13.418 5.71-19.7.194-.196 1.666-2.328 4.428-6.42 2.76-4.09 5.187-7.715 7.28-10.855 2.097-3.14 4.477-7.327 7.14-12.563 2.664-5.235 4.665-10.04 5.996-14.41.76-3.046 2.762-4.576 5.996-4.576 3.236 0 5.236 1.53 5.997 4.575 1.332 4.37 3.332 9.176 5.996 14.41 2.67 5.237 5.05 9.423 7.14 12.564 2.09 3.14 4.52 6.76 7.28 10.853 2.76 4.093 4.23 6.225 4.43 6.42 3.81 6.283 5.71 12.847 5.71 19.7 0 10.09-3.57 18.704-10.71 25.836z"/>
</svg>
