<svg xmlns="http://www.w3.org/2000/svg" viewBox="0 0 20.766 20.766">
  <circle cx="10.432" cy="15.771" r="2.426"/>
  <path d="M16.23 9.926c-.036-.037-.074-.07-.11-.104l-.11-.103c-.018-.02-.038-.038-.06-.056-3.138-2.85-7.94-2.737-10.933.257l-.35.353-.487.486c-.592.592-.59 1.557.004 2.15.594.595 1.56.596 2.15.004l.838-.838c1.904-1.904 5-1.904 6.904-.002l.605.586c.59.588 1.547.587 2.136-.003.285-.285.442-.664.443-1.067 0-.4-.155-.78-.44-1.064l-.586-.604z"/>
  <path d="M20.363 6.927l-.504-.504c-.007-.002-.008-.005-.01-.006l-.4-.4c-.07-.07-.146-.13-.226-.18-5.113-4.49-12.89-4.352-17.84.41-.024.022-.05.037-.075.06L.4 7.22c-.54.536-.536 1.413.007 1.956.54.542 1.418.546 1.958.005l.91-.91.017-.02c4.003-3.863 10.353-3.89 14.388-.075l.717.717c.538.54 1.417.54 1.96-.003.54-.544.542-1.42.003-1.96z"/>
</svg>
